<?xml version="1.0" encoding="UTF-8"?>
<svg width="70px" height="71px" viewBox="0 0 70 71" version="1.1" xmlns="http://www.w3.org/2000/svg" xmlns:xlink="http://www.w3.org/1999/xlink">
    <!-- Generator: Sketch 61 (89581) - https://sketch.com -->
    <title>beeldmerk-beeldbank</title>
    <desc>Created with Sketch.</desc>
    <g id="Symbols" stroke="none" stroke-width="1" fill="none" fill-rule="evenodd">
        <g id="Components-/-Top" transform="translate(-122.000000, -9.000000)" fill-rule="nonzero">
            <g id="beeldmerk-beeldbank" transform="translate(122.000000, 9.000000)">
                <g id="Group">
                    <g transform="translate(0.000000, 0.084503)" fill="#00A39C" id="Oval">
                        <ellipse cx="34.9578313" cy="35.0266189" rx="34.9578313" ry="35.0266189"></ellipse>
                        <ellipse cx="34.9578313" cy="35.0266189" rx="34.9578313" ry="35.0266189"></ellipse>
                    </g>
                    <path d="M59.6771084,10.3432042 C46.0228916,-3.33788045 23.8927711,-3.33788045 10.2385542,10.3432042 L59.6771084,59.8790401 C73.3313253,46.1979555 73.3313253,24.0242889 59.6771084,10.3432042 Z" id="Path" fill="#00B3AB"></path>
                </g>
                <g id="Group" transform="translate(14.848485, 14.848485)">
                    <g>
                        <rect id="Rectangle" fill="#213A38" opacity="0.3" x="0.050822003" y="0" width="26.1563909" height="31.7289303"></rect>
                        <rect id="Rectangle" fill="#FFFFFF" x="1.03338073" y="0.886937396" width="26.1563909" height="31.5783182"></rect>
                        <g transform="translate(15.839524, 12.634674)">
                            <path d="M6.88638141,9.09529198 L0.177877011,9.09529198 L0.177877011,0.125510009 L6.84402974,0.125510009 C6.97108475,0.125510009 7.06425842,0.225918016 7.06425842,0.343060691 L7.06425842,8.91121063 C7.07272875,9.01161864 6.98802542,9.09529198 6.88638141,9.09529198 Z" id="Path" fill="#231F20" opacity="0.3"></path>
                            <path d="M6.77626707,8.98651664 L0.0762330045,8.98651664 L0.0762330045,0.0251020018 L6.67462306,0.0251020018 C6.83555941,0.0251020018 6.96261441,0.150612011 6.96261441,0.309591355 L6.96261441,8.80243529 C6.97108475,8.9028433 6.88638141,8.98651664 6.77626707,8.98651664 Z" id="Path" fill="#4C2974"></path>
                            <rect id="Rectangle" fill="#E9BE40" x="1.59242276" y="2.38469017" width="3.8540019" height="1"></rect>
                            <path d="M6.97108475,8.50121127 L6.97108475,5.76509308 L0.0762330045,3.17958689 L0.0762330045,8.97814931 L6.47980539,8.97814931 C6.75085607,8.98651664 6.97108475,8.76896596 6.97108475,8.50121127 Z" id="Path" fill="#452369"></path>
                            <rect id="Rectangle" fill="#E9BE40" x="2.54957048" y="1.3806101" width="1.93123611" height="1"></rect>
                            <rect id="Rectangle" fill="#E9BE40" x="3.04932018" y="7.4720292" width="1" height="1"></rect>
                            <g transform="translate(2.032880, 2.510200)">
                                <path d="M0.135525341,3.92427961 L1.0757324,0.334693357 C1.11808407,0.175714012 1.28749074,0.0753060054 1.44842709,0.117142675 L6.62380106,1.43918144 C6.7847374,1.48101811 6.88638141,1.64836478 6.84402974,1.80734413 L5.90382268,5.39693038 C5.86147102,5.55590973 5.69206434,5.65631774 5.531128,5.61448107 L0.355754021,4.29244231 C0.186347344,4.25060564 0.0931736722,4.08325896 0.135525341,3.92427961 Z" id="Path" fill="#231F20" opacity="0.3"></path>
                                <path d="M0.0762330045,3.85734094 L1.02491039,0.225918016 C1.06726206,0.0753060054 1.21972807,-0.0167346679 1.37219408,0.0251020018 L6.58991973,1.3555081 C6.74238573,1.39734477 6.83555941,1.54795678 6.79320774,1.69856879 L5.84453035,5.32999171 C5.80217868,5.48060372 5.64971267,5.5726444 5.49724666,5.53080773 L0.279521017,4.20040163 C0.127055008,4.1669323 0.0338813353,4.00795295 0.0762330045,3.85734094 Z" id="Path" fill="#B7EAE6"></path>
                                <path d="M1.40607542,0.0334693357 C1.23666874,-0.00836733393 1.05879173,0.0920406732 1.01644006,0.259387352 L0.0847033384,3.81550427 C0.0423516692,3.98285095 0.143995675,4.15856496 0.313402352,4.20040163 L0.372694689,4.2171363 L5.19231464,0.987345404 L1.40607542,0.0334693357 Z" id="Path" fill="#DDEED6"></path>
                                <polygon id="Rectangle" fill="#6DAAAA" transform="translate(3.694882, 2.872109) rotate(-75.853979) translate(-3.694882, -2.872109) " points="3.56006093 1.12806579 3.81964541 1.1288225 3.82970226 4.61615162 3.57011778 4.61539492"></polygon>
                                <polygon id="Rectangle" fill="#6DAAAA" transform="translate(2.984808, 3.598549) rotate(-75.853979) translate(-2.984808, -3.598549) " points="2.85130504 2.31158313 3.11088953 2.31233983 3.11831011 4.88551472 2.85872563 4.88475802"></polygon>
                            </g>
                        </g>
                        <rect id="Rectangle" fill="#DADBDC" x="4.54009894" y="24.0895544" width="7.16590243" height="1"></rect>
                        <rect id="Rectangle" fill="#DADBDC" x="4.54009894" y="26.7754686" width="5.97158536" height="1"></rect>
                        <rect id="Rectangle" fill="#DADBDC" x="15.9157573" y="24.0895544" width="7.16590243" height="1"></rect>
                        <rect id="Rectangle" fill="#DADBDC" x="15.9157573" y="26.7754686" width="5.97158536" height="1"></rect>
                        <rect id="Rectangle" fill="#858789" x="4.54009894" y="5.07897169" width="9.67312124" height="1"></rect>
                        <rect id="Rectangle" fill="#DADBDC" x="4.54009894" y="8.23345659" width="17.5759427" height="1"></rect>
                        <g transform="translate(4.489277, 12.551001)">
                            <rect id="Rectangle" fill="#C32C76" x="0.050822003" y="0.0585713375" width="7.37766077" height="8.97814931"></rect>
                            <polygon id="Path" fill="#B0256B" points="0.050822003 4.76101301 0.050822003 9.17896532 7.42848277 9.17896532 7.42848277 5.1040737"></polygon>
                            <g transform="translate(0.847033, 1.924487)" id="Path">
                                <path d="M2.32087147,5.44713439 C2.32087147,5.44713439 2.21075713,4.90325768 2.2785198,4.86142101 C2.34628247,4.81121701 3.16790486,4.69407433 3.51518854,4.83631901 L3.57448088,5.44713439 L2.48180781,5.93243976 L2.32087147,5.44713439 Z" fill="#AFB1B4"></path>
                                <path d="M4.58245061,5.76509308 C4.58245061,5.76509308 4.5316286,5.51407306 4.11658224,5.38019572 C3.70153589,5.24631837 3.38813353,5.1040737 3.38813353,4.81958434 C3.38813353,4.52672766 3.38813353,4.05815696 3.38813353,4.05815696 L2.88838384,4.05815696 L2.38863414,4.05815696 C2.38863414,4.05815696 2.38863414,4.53509499 2.38863414,4.81958434 C2.38863414,5.11244103 2.07523179,5.24631837 1.66018543,5.38019572 C1.24513907,5.51407306 1.19431707,5.76509308 1.19431707,5.76509308 L0.0592923369,8.32549726 L0.770800379,8.32549726 L1.44842709,6.86958116 L1.7279481,8.32549726 L2.88838384,8.32549726 L4.04881957,8.32549726 L4.32834059,6.86958116 L5.0059673,8.32549726 L5.71747534,8.32549726 L4.58245061,5.76509308 Z" fill="#BFA573"></path>
                                <path d="M4.69256495,1.8491808 C4.69256495,3.26326023 4.18434492,4.41795231 2.8799135,4.41795231 C1.57548209,4.41795231 1.09267306,3.24652556 1.09267306,1.84081346 C1.09267306,0.42673403 2.3039308,0.142244677 2.90532451,0.142244677 C3.49824787,0.142244677 4.69256495,0.435101364 4.69256495,1.8491808 Z" fill="#D0B37D"></path>
                                <path d="M2.23616813,3.56448425 C2.43098581,3.68162693 2.64274416,3.6983616 2.86297284,3.6983616 C3.07473118,3.6983616 3.28648953,3.67325959 3.48977754,3.56448425 C3.41354454,3.64815759 3.20178619,3.80713694 2.86297284,3.80713694 C2.52415948,3.80713694 2.3039308,3.66489226 2.23616813,3.56448425 Z" fill="#494032"></path>
                                <path d="M2.45639681,2.75285286 C2.45639681,2.94530154 2.29546047,3.10428089 2.10064279,3.10428089 C1.90582511,3.10428089 1.74488877,2.94530154 1.74488877,2.75285286 C1.74488877,2.56040418 1.90582511,2.40142484 2.10064279,2.40142484 C2.29546047,2.40142484 2.45639681,2.56040418 2.45639681,2.75285286 Z" fill="#896B4E"></path>
                                <path d="M2.36322314,2.75285286 C2.36322314,2.88673021 2.2531088,2.99550555 2.11758346,2.99550555 C1.98205812,2.99550555 1.87194378,2.88673021 1.87194378,2.75285286 C1.87194378,2.61897552 1.98205812,2.51020018 2.11758346,2.51020018 C2.24463847,2.51020018 2.36322314,2.61897552 2.36322314,2.75285286 Z" fill="#2A1D01"></path>
                                <path d="M2.00746912,2.62734285 C2.00746912,2.66917952 1.97358778,2.70264886 1.93970645,2.70264886 C1.89735478,2.70264886 1.87194378,2.66917952 1.87194378,2.62734285 C1.87194378,2.58550618 1.90582511,2.56040418 1.93970645,2.56040418 C1.97358778,2.55203685 2.00746912,2.58550618 2.00746912,2.62734285 Z" fill="#FFFFFF"></path>
                                <path d="M3.3288412,2.75285286 C3.3288412,2.94530154 3.48977754,3.10428089 3.68459522,3.10428089 C3.8794129,3.10428089 4.04034924,2.94530154 4.04034924,2.75285286 C4.04034924,2.56040418 3.8794129,2.40142484 3.68459522,2.40142484 C3.49824787,2.40142484 3.3288412,2.56040418 3.3288412,2.75285286 Z" fill="#896B4E"></path>
                                <path d="M3.42201487,2.75285286 C3.42201487,2.88673021 3.53212921,2.99550555 3.66765455,2.99550555 C3.80317989,2.99550555 3.91329423,2.88673021 3.91329423,2.75285286 C3.91329423,2.61897552 3.80317989,2.51020018 3.66765455,2.51020018 C3.54059954,2.51020018 3.42201487,2.61897552 3.42201487,2.75285286 Z" fill="#2A1D01"></path>
                                <path d="M3.43895554,2.62734285 C3.43895554,2.66917952 3.47283687,2.70264886 3.50671821,2.70264886 C3.54906988,2.70264886 3.57448088,2.66917952 3.57448088,2.62734285 C3.57448088,2.58550618 3.54059954,2.56040418 3.50671821,2.56040418 C3.47283687,2.55203685 3.43895554,2.58550618 3.43895554,2.62734285 Z" fill="#FFFFFF"></path>
                                <path d="M4.70103528,5.53080773 C4.70103528,5.53080773 4.67562428,5.48060372 4.54009894,5.42203239 C4.35375159,5.33835905 4.35375159,5.33835905 3.66765455,5.1040737 L2.88838384,5.68141974 L2.10911313,5.1040737 C1.43148642,5.33835905 1.43148642,5.33835905 1.23666874,5.42203239 C1.1011434,5.48060372 1.0757324,5.53080773 1.0757324,5.53080773 L5.68434189e-14,8.32549726 L0.813152048,8.32549726 L1.43148642,7.0285605 L1.53313042,8.32549726 L2.86297284,8.35896659 L2.86297284,8.35896659 L2.88838384,8.35896659 L2.91379484,8.35896659 L2.91379484,8.35896659 L4.24363725,8.32549726 L4.34528126,7.0285605 L4.96361563,8.32549726 L5.77676768,8.32549726 L4.70103528,5.53080773 Z" fill="#00B4AC"></path>
                                <path d="M2.27004947,4.86142101 C2.28699014,5.07897169 2.89685417,5.6730524 2.89685417,5.6730524 C2.89685417,5.6730524 3.54059954,5.14591037 3.51518854,4.83631901 L3.80317989,5.14591037 C3.80317989,5.38019572 3.25260819,6.1416231 3.25260819,6.1416231 L2.90532451,5.68978707 L2.56651115,6.15835777 C2.56651115,6.15835777 1.98205812,5.47223639 1.98205812,5.14591037 L2.27004947,4.86142101 Z" fill="#F4F4F4"></path>
                                <path d="M2.56651115,6.19182711 L2.54957048,6.17509244 C2.52415948,6.14999044 1.95664712,5.48060372 1.95664712,5.14591037 L1.99899879,5.14591037 C1.99899879,5.43039972 2.46486715,6.01611309 2.56651115,6.12488844 L2.90532451,5.65631774 L3.25260819,6.10815377 C3.34578187,5.99101109 3.81165023,5.35509371 3.81165023,5.14591037 L3.8540019,5.16264503 C3.8540019,5.40529772 3.29495986,6.12488844 3.27801919,6.14999044 L3.26107853,6.16672511 L2.91379484,5.71488907 L2.56651115,6.19182711 Z" fill="#DBDCDD"></path>
                                <path d="M4.74338695,1.30530409 C4.73491661,1.24673276 4.71797595,1.19652875 4.70103528,1.13795741 C4.68409461,1.08775341 4.66715394,0.970610736 4.66715394,0.970610736 C4.66715394,0.970610736 4.64174294,0.962243402 4.63327261,0.953876068 C4.61633194,0.920406732 4.60786161,0.828366059 4.60786161,0.828366059 C4.60786161,0.828366059 4.51468794,0.753060054 4.47233627,0.694488716 C4.43845493,0.66101938 4.34528126,0.543876705 4.34528126,0.543876705 L4.30292959,0.543876705 L4.18434492,0.460203366 C4.18434492,0.460203366 4.12505258,0.368162693 4.09117124,0.334693357 C4.07423058,0.326326023 4.04034924,0.351428025 4.03187891,0.334693357 C4.0064679,0.317958689 3.96411624,0.284489354 3.96411624,0.284489354 L3.91329423,0.217550682 L3.75235789,0.175714012 C3.75235789,0.175714012 3.71847655,0.150612011 3.69306555,0.142244677 C3.65918422,0.133877343 3.57448088,0.150612011 3.57448088,0.150612011 L3.53212921,0.108775341 L3.38813353,0.125510009 L3.28648953,0.0753060054 L3.24413786,0.108775341 L3.15096419,0.100408007 C3.15096419,0.100408007 3.10861252,0.0753060054 3.09167185,0.0753060054 C3.06626085,0.0753060054 3.00696851,0.0836733393 3.00696851,0.0836733393 C3.00696851,0.0836733393 2.93920584,0.0585713375 2.90532451,0.0585713375 C2.8545025,0.0585713375 2.71897716,0.0920406732 2.71897716,0.0920406732 L2.65121449,0.0836733393 L2.54110015,0.117142675 C2.54110015,0.117142675 2.48180781,0.108775341 2.45639681,0.108775341 C2.42251548,0.117142675 2.36322314,0.142244677 2.36322314,0.142244677 L2.26157913,0.142244677 L2.21922747,0.158979345 L2.12605379,0.150612011 L2.05829112,0.184081346 C2.05829112,0.184081346 2.01593945,0.175714012 1.99899879,0.184081346 C1.99052845,0.184081346 1.97358778,0.175714012 1.97358778,0.175714012 L1.87194378,0.251020018 L1.78724044,0.309591355 L1.74488877,0.309591355 C1.74488877,0.309591355 1.71947777,0.368162693 1.69406677,0.384897361 C1.66865577,0.409999362 1.6008931,0.42673403 1.57548209,0.443468698 C1.55854143,0.460203366 1.57548209,0.4685707 1.55007109,0.485305368 C1.54160076,0.493672702 1.49077876,0.502040036 1.48230842,0.502040036 C1.46536775,0.51040737 1.49077876,0.527142037 1.47383809,0.535509371 C1.41454575,0.577346041 1.35525341,0.627550045 1.32137208,0.669386714 C1.29596108,0.694488716 1.27055008,0.727958052 1.25360941,0.761427387 C1.21125774,0.819998725 1.1773764,0.886937396 1.1519654,0.953876068 C1.14349507,0.97897807 1.13502473,1.00408007 1.11808407,1.02918207 C1.08420273,1.11285541 1.06726206,1.19652875 1.04185106,1.28856942 C1.01644006,1.42244677 1.03338073,1.55632411 1.03338073,1.69856879 C1.00796973,2.54366951 1.24513907,3.02060755 1.24513907,3.02060755 C1.42301608,2.89509754 1.19431707,1.84081346 1.7279481,1.48938544 C1.89735478,1.3806101 2.79521017,1.37224276 2.89685417,1.37224276 C2.99849818,1.37224276 3.88788323,1.3806101 4.05728991,1.48938544 C4.59092094,1.84081346 4.37069226,2.88673021 4.54009894,3.02060755 C4.54009894,3.02060755 4.78573862,2.54366951 4.75185728,1.69856879 C4.75185728,1.57305878 4.77726828,1.4308141 4.74338695,1.30530409 Z" fill="#272524"></path>
                                <path d="M4.54856927,2.45162884 C4.54856927,2.45162884 4.51468794,2.40142484 4.5062176,2.28428216 C4.4808066,1.99979281 4.41304393,1.46428344 4.30292959,1.37224276 C4.15046358,1.24673276 3.83706123,1.31367143 3.76082822,1.31367143 C3.68459522,1.31367143 3.41354454,1.23836542 3.3542522,1.16305942 C3.3542522,1.16305942 3.10861252,1.24673276 2.89685417,1.24673276 C2.68509583,1.24673276 2.56651115,1.16305942 2.56651115,1.16305942 C2.56651115,1.16305942 2.36322314,1.26346742 2.29546047,1.26346742 C2.2276978,1.26346742 2.13452413,1.21326342 2.13452413,1.21326342 C2.13452413,1.21326342 2.12605379,1.27183476 2.05829112,1.29693676 C1.93970645,1.3555081 1.63477443,1.28020209 1.57548209,1.3555081 C1.51618976,1.4308141 1.33831275,1.63999745 1.32137208,2.01652748 C1.31290174,2.38469017 1.23666874,1.97469081 1.23666874,1.94122147 C1.23666874,1.90775214 1.28749074,1.3555081 1.30443141,1.33877343 C1.32984241,1.32203876 1.41454575,1.27183476 1.41454575,1.27183476 C1.41454575,1.27183476 1.30443141,1.06265141 1.48230842,0.903672064 C1.53313042,0.861835395 1.78724044,0.903672064 1.78724044,0.903672064 C1.78724044,0.903672064 1.76182944,0.610815377 1.86347344,0.560611373 C1.96511745,0.51040737 2.09217246,0.619182711 2.23616813,0.543876705 C2.46486715,0.435101364 2.54957048,0.736325386 2.62580349,0.677754048 C2.70203649,0.627550045 2.7274475,0.359795359 2.91379484,0.460203366 C3.28648953,0.652652046 3.13402352,0.460203366 3.39660387,0.493672702 C3.65918422,0.527142037 3.56601055,0.644284712 3.75235789,0.753060054 C3.94717557,0.861835395 4.09964158,0.778162055 4.15046358,0.836733393 C4.20128558,0.89530473 4.21822625,1.13795741 4.4553956,1.22999809 C4.69256495,1.32203876 4.5570396,2.17550682 4.56550994,2.23407816 C4.58245061,2.30938416 4.59939127,2.45162884 4.54856927,2.45162884 Z" fill="#393735"></path>
                                <path d="M2.51568915,1.11285541 C2.51568915,1.11285541 2.33781214,1.22163075 2.27004947,1.22163075 C2.2022868,1.22163075 2.10911313,1.09612074 2.10064279,0.953876068 C2.10064279,0.953876068 2.19381646,1.13795741 2.24463847,1.15469208 C2.29546047,1.16305942 2.28699014,1.04591674 2.33781214,1.06265141 C2.38863414,1.07938608 2.42251548,1.10448808 2.44792648,1.08775341 C2.50721882,1.05428407 2.42251548,0.602448043 2.2785198,0.376530027 C2.27004947,0.384897361 2.61733316,0.9371414 2.51568915,1.11285541 Z" fill="#4F4C49"></path>
                                <path d="M3.36272253,0.803264057 C3.36272253,0.803264057 3.3542522,1.09612074 3.25260819,1.11285541 C3.15096419,1.12959008 3.25260819,0.251020018 3.25260819,0.251020018 C3.25260819,0.251020018 3.16790486,0.819998725 3.15943452,0.89530473 C3.15096419,0.970610736 3.11708285,1.00408007 3.08320152,1.00408007 C3.05779052,1.00408007 3.09167185,1.11285541 3.05779052,1.12959008 C3.02390918,1.14632475 2.93920584,1.16305942 2.91379484,1.03754941 C2.91379484,1.03754941 2.90532451,1.16305942 2.99849818,1.17979408 C3.09167185,1.19652875 3.3034302,1.15469208 3.33731153,1.11285541 C3.38813353,1.07101874 3.38813353,0.878570062 3.36272253,0.803264057 Z" fill="#4F4C49"></path>
                                <path d="M1.68559643,1.23836542 C1.7279481,1.23836542 1.77029977,1.23836542 1.81265144,1.23836542 C1.85500311,1.23836542 1.89735478,1.23836542 1.93970645,1.23836542 C1.95664712,1.23836542 1.98205812,1.23836542 1.99899879,1.22999809 C2.01593945,1.22999809 2.02440979,1.21326342 2.03288012,1.19652875 C2.04135045,1.17979408 2.04135045,1.15469208 2.03288012,1.13795741 C2.03288012,1.12122275 2.02440979,1.09612074 2.01593945,1.07938608 C2.03288012,1.09612074 2.04135045,1.11285541 2.04982079,1.13795741 C2.05829112,1.16305942 2.05829112,1.17979408 2.05829112,1.20489609 C2.05829112,1.21326342 2.04982079,1.22999809 2.04135045,1.23836542 C2.03288012,1.24673276 2.03288012,1.24673276 2.02440979,1.25510009 C2.01593945,1.25510009 2.00746912,1.26346742 2.00746912,1.26346742 C1.98205812,1.27183476 1.96511745,1.27183476 1.93970645,1.27183476 C1.89735478,1.27183476 1.85500311,1.27183476 1.80418111,1.26346742 C1.77029977,1.25510009 1.7279481,1.24673276 1.68559643,1.23836542 Z" fill="#4F4C49"></path>
                                <path d="M3.48977754,0.602448043 C3.48130721,0.70285605 3.47283687,0.803264057 3.47283687,0.89530473 C3.47283687,0.945508734 3.47283687,0.995712737 3.48130721,1.03754941 C3.48130721,1.06265141 3.48977754,1.08775341 3.48977754,1.10448808 C3.49824787,1.12959008 3.50671821,1.14632475 3.51518854,1.16305942 C3.52365888,1.17142675 3.53212921,1.17979408 3.54059954,1.18816142 C3.54906988,1.19652875 3.55754021,1.19652875 3.56601055,1.20489609 C3.58295121,1.21326342 3.60836221,1.21326342 3.62530288,1.21326342 C3.63377322,1.21326342 3.65071388,1.20489609 3.65918422,1.20489609 C3.66765455,1.20489609 3.68459522,1.19652875 3.70153589,1.19652875 C3.70153589,1.19652875 3.71000622,1.19652875 3.71847655,1.19652875 C3.72694689,1.19652875 3.72694689,1.19652875 3.73541722,1.20489609 C3.74388756,1.20489609 3.74388756,1.21326342 3.74388756,1.21326342 C3.74388756,1.21326342 3.75235789,1.22163075 3.75235789,1.22163075 C3.76082822,1.22999809 3.76082822,1.23836542 3.76082822,1.23836542 C3.76082822,1.24673276 3.76082822,1.23836542 3.76929856,1.24673276 C3.77776889,1.24673276 3.78623923,1.25510009 3.80317989,1.25510009 C3.81165023,1.25510009 3.82859089,1.25510009 3.83706123,1.25510009 C3.86247223,1.25510009 3.88788323,1.25510009 3.9048239,1.24673276 C3.9556459,1.23836542 3.99799757,1.21326342 4.04034924,1.17979408 C4.0064679,1.21326342 3.96411624,1.24673276 3.91329423,1.26346742 C3.88788323,1.27183476 3.86247223,1.28020209 3.83706123,1.28020209 C3.82012056,1.28020209 3.81165023,1.28020209 3.79470956,1.28020209 C3.77776889,1.28020209 3.76929856,1.28020209 3.75235789,1.27183476 C3.75235789,1.27183476 3.74388756,1.26346742 3.73541722,1.26346742 C3.73541722,1.26346742 3.73541722,1.25510009 3.72694689,1.25510009 L3.72694689,1.24673276 C3.72694689,1.23836542 3.72694689,1.23836542 3.71847655,1.23836542 C3.71847655,1.23836542 3.71847655,1.23836542 3.71000622,1.23836542 C3.71000622,1.23836542 3.71000622,1.23836542 3.70153589,1.23836542 C3.70153589,1.23836542 3.70153589,1.23836542 3.69306555,1.23836542 C3.69306555,1.23836542 3.69306555,1.23836542 3.68459522,1.23836542 C3.66765455,1.23836542 3.64224355,1.25510009 3.61683255,1.25510009 C3.59142155,1.26346742 3.55754021,1.25510009 3.53212921,1.24673276 C3.51518854,1.23836542 3.50671821,1.23836542 3.49824787,1.22999809 C3.48977754,1.22163075 3.47283687,1.21326342 3.46436654,1.20489609 C3.44742587,1.17979408 3.43895554,1.15469208 3.4304852,1.12959008 C3.42201487,1.10448808 3.42201487,1.07938608 3.42201487,1.05428407 C3.42201487,1.00408007 3.42201487,0.953876068 3.42201487,0.903672064 C3.44742587,0.803264057 3.46436654,0.70285605 3.48977754,0.602448043 Z" fill="#4F4C49"></path>
                            </g>
                        </g>
                    </g>
                    <g transform="translate(6.098640, 4.434687)">
                        <rect id="Rectangle" fill="#213A38" opacity="0.3" x="0.0254110015" y="0.0418366696" width="26.1563909" height="31.7289303"></rect>
                        <rect id="Rectangle" fill="#FFFFFF" x="1.00796973" y="0.928774066" width="26.1563909" height="31.5783182"></rect>
                        <g transform="translate(15.839524, 12.634674)">
                            <path d="M6.86097041,9.13712865 L0.152466009,9.13712865 L0.152466009,0.167346679 L6.81861874,0.167346679 C6.94567375,0.167346679 7.03884742,0.267754686 7.03884742,0.384897361 L7.03884742,8.9530473 C7.04731775,9.05345531 6.96261441,9.13712865 6.86097041,9.13712865 Z" id="Path" fill="#231F20" opacity="0.3"></path>
                            <path d="M6.75085607,9.03672064 L0.050822003,9.03672064 L0.050822003,0.0669386714 L6.64921206,0.0669386714 C6.8101484,0.0669386714 6.93720341,0.19244868 6.93720341,0.351428025 L6.93720341,8.84427196 C6.94567375,8.9530473 6.86097041,9.03672064 6.75085607,9.03672064 Z" id="Path" fill="#4C2974"></path>
                            <rect id="Rectangle" fill="#E9BE40" x="1.56701176" y="2.43489417" width="3.8540019" height="1"></rect>
                            <path d="M6.94567375,8.54304794 L6.94567375,5.80692975 L0.050822003,3.22142356 L0.050822003,9.01998597 L6.45439438,9.01998597 C6.72544507,9.02835331 6.94567375,8.81080263 6.94567375,8.54304794 Z" id="Path" fill="#452369"></path>
                            <rect id="Rectangle" fill="#E9BE40" x="2.52415948" y="1.4308141" width="1.93123611" height="1"></rect>
                            <rect id="Rectangle" fill="#E9BE40" x="3.02390918" y="7.5222332" width="1" height="1"></rect>
                            <g transform="translate(2.032880, 2.510200)">
                                <path d="M0.11011434,3.96611628 L1.0503214,0.376530027 C1.09267306,0.217550682 1.26207974,0.117142675 1.42301608,0.158979345 L6.59839006,1.48101811 C6.7593264,1.52285477 6.86097041,1.69020145 6.81861874,1.8491808 L5.88688202,5.43876705 C5.84453035,5.5977464 5.67512367,5.69815441 5.51418733,5.65631774 L0.338813353,4.33427897 C0.160936343,4.29244231 0.0677626707,4.13346296 0.11011434,3.96611628 Z" id="Path" fill="#231F20" opacity="0.3"></path>
                                <path d="M0.050822003,3.90754494 L0.999499393,0.27612202 C1.04185106,0.125510009 1.19431707,0.0334693357 1.34678308,0.0753060054 L6.56450872,1.4057121 C6.71697473,1.44754877 6.8101484,1.59816078 6.76779674,1.74877279 L5.81911935,5.38019572 C5.77676768,5.53080773 5.62430167,5.6228484 5.47183566,5.58101173 L0.254110015,4.25060564 C0.101644006,4.20876897 0.00847033384,4.05815696 0.050822003,3.90754494 Z" id="Path" fill="#B7EAE6"></path>
                                <path d="M1.38066442,0.0836733393 C1.21125774,0.0418366696 1.03338073,0.142244677 0.991029059,0.309591355 L0.0592923369,3.86570827 C0.0169406677,4.03305495 0.118584674,4.20876897 0.28799135,4.25060564 L0.347283687,4.2673403 L5.16690364,1.03754941 L1.38066442,0.0836733393 Z" id="Path" fill="#DDEED6"></path>
                                <polygon id="Rectangle" fill="#6DAAAA" transform="translate(3.667957, 2.916297) rotate(-75.853979) translate(-3.667957, -2.916297) " points="3.53313628 1.17225452 3.79272076 1.17301122 3.80277761 4.66034035 3.54319313 4.65958365"></polygon>
                                <polygon id="Rectangle" fill="#6DAAAA" transform="translate(2.957891, 3.642746) rotate(-75.853979) translate(-2.957891, -3.642746) " points="2.82438886 2.35578022 3.08397335 2.35653693 3.09139393 4.92971182 2.83180945 4.92895511"></polygon>
                            </g>
                        </g>
                        <rect id="Rectangle" fill="#DADBDC" x="4.51468794" y="24.131391" width="7.16590243" height="1"></rect>
                        <rect id="Rectangle" fill="#DADBDC" x="4.51468794" y="26.8173052" width="5.97158536" height="1"></rect>
                        <rect id="Rectangle" fill="#DADBDC" x="15.8903463" y="24.131391" width="7.16590243" height="1"></rect>
                        <rect id="Rectangle" fill="#DADBDC" x="15.8903463" y="26.8173052" width="5.97158536" height="1"></rect>
                        <rect id="Rectangle" fill="#858789" x="4.51468794" y="5.12080836" width="9.67312124" height="1"></rect>
                        <rect id="Rectangle" fill="#DADBDC" x="4.51468794" y="8.27529326" width="17.5759427" height="1"></rect>
                        <g transform="translate(4.489277, 12.634674)">
                            <rect id="Rectangle" fill="#0095DA" x="0.0254110015" y="0.0251020018" width="7.37766077" height="8.97814931"></rect>
                            <polygon id="Path" fill="#1B88C0" points="0.0254110015 4.71917634 0.0254110015 9.13712865 7.40307177 9.13712865 7.40307177 5.07060436"></polygon>
                            <g transform="translate(0.762330, 1.924487)" id="Path">
                                <path d="M2.38016381,5.41366505 C2.38016381,5.41366505 2.27004947,4.86978835 2.33781214,4.82795168 C2.40557481,4.77774767 3.22719719,4.660605 3.57448088,4.80284967 L3.63377322,5.41366505 L2.54110015,5.89897042 L2.38016381,5.41366505 Z" fill="#AFB1B4"></path>
                                <path d="M4.64174294,5.72325641 C4.64174294,5.72325641 4.59092094,5.47223639 4.17587458,5.33835905 C3.76082822,5.2044817 3.44742587,5.06223703 3.44742587,4.77774767 C3.44742587,4.48489099 3.44742587,4.01632029 3.44742587,4.01632029 L2.94767618,4.01632029 L2.45639681,4.01632029 C2.45639681,4.01632029 2.45639681,4.49325832 2.45639681,4.77774767 C2.45639681,5.07060436 2.14299446,5.2044817 1.7279481,5.33835905 C1.31290174,5.47223639 1.26207974,5.72325641 1.26207974,5.72325641 L0.127055008,8.28366059 L0.83856305,8.28366059 L1.51618976,6.82774449 L1.79571077,8.28366059 L2.95614651,8.28366059 L4.11658224,8.28366059 L4.39610326,6.82774449 L5.07372997,8.28366059 L5.78523801,8.28366059 L4.64174294,5.72325641 Z" fill="#BFA573"></path>
                                <path d="M4.75185728,1.80734413 C4.75185728,3.22142356 4.24363725,4.37611564 2.93920584,4.37611564 C1.63477443,4.37611564 1.1519654,3.20468889 1.1519654,1.79897679 C1.1519654,0.384897361 2.36322314,0.100408007 2.96461684,0.100408007 C3.55754021,0.100408007 4.75185728,0.393264695 4.75185728,1.80734413 Z" fill="#D0B37D"></path>
                                <path d="M2.29546047,3.53101492 C2.49027815,3.64815759 2.70203649,3.66489226 2.92226517,3.66489226 C3.13402352,3.66489226 3.34578187,3.63979026 3.54906988,3.53101492 C3.47283687,3.61468826 3.26107853,3.7736676 2.92226517,3.7736676 C2.58345182,3.7736676 2.36322314,3.62305559 2.29546047,3.53101492 Z" fill="#494032"></path>
                                <path d="M2.51568915,2.71101619 C2.51568915,2.90346487 2.35475281,3.06244422 2.15993513,3.06244422 C1.96511745,3.06244422 1.80418111,2.90346487 1.80418111,2.71101619 C1.80418111,2.51856751 1.96511745,2.35958817 2.15993513,2.35958817 C2.35475281,2.35958817 2.51568915,2.51856751 2.51568915,2.71101619 Z" fill="#896B4E"></path>
                                <path d="M2.42251548,2.71101619 C2.42251548,2.84489354 2.31240114,2.95366888 2.1768758,2.95366888 C2.04135045,2.95366888 1.93123611,2.84489354 1.93123611,2.71101619 C1.93123611,2.57713885 2.04135045,2.46836351 2.1768758,2.46836351 C2.31240114,2.46836351 2.42251548,2.57713885 2.42251548,2.71101619 Z" fill="#2A1D01"></path>
                                <path d="M2.06676146,2.58550618 C2.06676146,2.62734285 2.03288012,2.66081219 1.99899879,2.66081219 C1.95664712,2.66081219 1.93123611,2.62734285 1.93123611,2.58550618 C1.93123611,2.54366951 1.96511745,2.51856751 1.99899879,2.51856751 C2.03288012,2.51856751 2.06676146,2.54366951 2.06676146,2.58550618 Z" fill="#FFFFFF"></path>
                                <path d="M3.39660387,2.71101619 C3.39660387,2.90346487 3.55754021,3.06244422 3.75235789,3.06244422 C3.94717557,3.06244422 4.10811191,2.90346487 4.10811191,2.71101619 C4.10811191,2.51856751 3.94717557,2.35958817 3.75235789,2.35958817 C3.55754021,2.35958817 3.39660387,2.51856751 3.39660387,2.71101619 Z" fill="#896B4E"></path>
                                <path d="M3.48977754,2.71101619 C3.48977754,2.84489354 3.59989188,2.95366888 3.73541722,2.95366888 C3.87094256,2.95366888 3.9810569,2.84489354 3.9810569,2.71101619 C3.9810569,2.57713885 3.87094256,2.46836351 3.73541722,2.46836351 C3.59989188,2.46836351 3.48977754,2.57713885 3.48977754,2.71101619 Z" fill="#2A1D01"></path>
                                <path d="M3.49824787,2.58550618 C3.49824787,2.62734285 3.53212921,2.66081219 3.56601055,2.66081219 C3.60836221,2.66081219 3.63377322,2.62734285 3.63377322,2.58550618 C3.63377322,2.54366951 3.59989188,2.51856751 3.56601055,2.51856751 C3.53212921,2.51856751 3.49824787,2.54366951 3.49824787,2.58550618 Z" fill="#FFFFFF"></path>
                                <path d="M4.76032762,5.48897106 C4.76032762,5.48897106 4.73491661,5.43876705 4.59939127,5.38019572 C4.41304393,5.29652238 4.41304393,5.29652238 3.72694689,5.06223703 L2.94767618,5.63958307 L2.16840546,5.06223703 C1.49077876,5.29652238 1.49077876,5.29652238 1.29596108,5.38019572 C1.16043574,5.43876705 1.13502473,5.48897106 1.13502473,5.48897106 L0.0677626707,8.28366059 L0.880914719,8.28366059 L1.49924909,6.98672383 L1.6008931,8.28366059 L2.93073551,8.31712992 L2.93073551,8.31712992 L2.95614651,8.31712992 L2.98155751,8.31712992 L2.98155751,8.31712992 L4.31139992,8.28366059 L4.41304393,6.98672383 L5.0313783,8.28366059 L5.84453035,8.28366059 L4.76032762,5.48897106 Z" fill="#00B4AC"></path>
                                <path d="M2.32934181,4.81958434 C2.34628247,5.03713502 2.95614651,5.63121573 2.95614651,5.63121573 C2.95614651,5.63121573 3.59989188,5.1040737 3.57448088,4.79448234 L3.86247223,5.1040737 C3.86247223,5.33835905 3.31190053,6.09978643 3.31190053,6.09978643 L2.96461684,5.6479504 L2.62580349,6.1165211 C2.62580349,6.1165211 2.04135045,5.43039972 2.04135045,5.1040737 L2.32934181,4.81958434 Z" fill="#F4F4F4"></path>
                                <path d="M2.62580349,6.14999044 L2.60886282,6.13325577 C2.58345182,6.10815377 2.01593945,5.43876705 2.01593945,5.1040737 L2.05829112,5.1040737 C2.05829112,5.38856305 2.52415948,5.97427642 2.62580349,6.08305177 L2.96461684,5.61448107 L3.31190053,6.0663171 C3.4050742,5.94917442 3.87094256,5.31325704 3.87094256,5.1040737 L3.91329423,5.12080836 C3.91329423,5.36346105 3.3542522,6.08305177 3.33731153,6.10815377 L3.32037086,6.12488844 L2.97308718,5.6730524 L2.62580349,6.14999044 Z" fill="#DBDCDD"></path>
                                <path d="M4.81114962,1.26346742 C4.80267929,1.20489609 4.78573862,1.15469208 4.76879795,1.09612074 C4.75185728,1.04591674 4.73491661,0.928774066 4.73491661,0.928774066 C4.73491661,0.928774066 4.70950561,0.920406732 4.70103528,0.912039398 C4.68409461,0.878570062 4.67562428,0.786529389 4.67562428,0.786529389 C4.67562428,0.786529389 4.58245061,0.711223384 4.54009894,0.652652046 C4.5062176,0.619182711 4.41304393,0.502040036 4.41304393,0.502040036 L4.37069226,0.502040036 L4.25210759,0.418366696 C4.25210759,0.418366696 4.19281525,0.326326023 4.15893391,0.292856687 C4.14199325,0.284489354 4.10811191,0.309591355 4.09964158,0.292856687 C4.07423058,0.27612202 4.03187891,0.242652684 4.03187891,0.242652684 L3.9810569,0.175714012 L3.82012056,0.133877343 C3.82012056,0.133877343 3.78623923,0.108775341 3.76082822,0.100408007 C3.72694689,0.0920406732 3.64224355,0.108775341 3.64224355,0.108775341 L3.59989188,0.0669386714 L3.45589621,0.0836733393 L3.3542522,0.0334693357 L3.31190053,0.0669386714 L3.21872686,0.0585713375 C3.21872686,0.0585713375 3.17637519,0.0334693357 3.15943452,0.0334693357 C3.13402352,0.0334693357 3.07473118,0.0418366696 3.07473118,0.0418366696 C3.07473118,0.0418366696 3.00696851,0.0167346679 2.97308718,0.0167346679 C2.92226517,0.0167346679 2.78673983,0.0502040036 2.78673983,0.0502040036 L2.71897716,0.0418366696 L2.60886282,0.0753060054 C2.60886282,0.0753060054 2.54957048,0.0669386714 2.52415948,0.0669386714 C2.49027815,0.0753060054 2.43098581,0.100408007 2.43098581,0.100408007 L2.32934181,0.100408007 L2.28699014,0.117142675 L2.19381646,0.108775341 L2.12605379,0.142244677 C2.12605379,0.142244677 2.08370212,0.133877343 2.06676146,0.142244677 C2.05829112,0.142244677 2.04135045,0.133877343 2.04135045,0.133877343 L1.93970645,0.209183348 L1.85500311,0.267754686 L1.81265144,0.267754686 C1.81265144,0.267754686 1.78724044,0.326326023 1.76182944,0.343060691 C1.73641844,0.368162693 1.66865577,0.384897361 1.64324476,0.401632029 C1.6263041,0.418366696 1.64324476,0.42673403 1.61783376,0.443468698 C1.60936343,0.451836032 1.55854143,0.460203366 1.55007109,0.460203366 C1.53313042,0.4685707 1.55854143,0.485305368 1.54160076,0.493672702 C1.48230842,0.535509371 1.42301608,0.585713375 1.38913475,0.627550045 C1.36372375,0.652652046 1.33831275,0.686121382 1.32137208,0.719590718 C1.27902041,0.778162055 1.24513907,0.845100727 1.21972807,0.912039398 C1.21125774,0.9371414 1.2027874,0.962243402 1.18584674,0.987345404 C1.1519654,1.07101874 1.13502473,1.15469208 1.10961373,1.24673276 C1.08420273,1.3806101 1.1011434,1.51448744 1.1011434,1.65673212 C1.0757324,2.50183284 1.31290174,2.97877088 1.31290174,2.97877088 C1.49077876,2.85326087 1.26207974,1.79897679 1.79571077,1.44754877 C1.96511745,1.33877343 2.86297284,1.33040609 2.96461684,1.33040609 C3.06626085,1.33040609 3.9556459,1.33877343 4.12505258,1.44754877 C4.65868361,1.79897679 4.43845493,2.84489354 4.60786161,2.97877088 C4.60786161,2.97877088 4.85350129,2.50183284 4.81961995,1.65673212 C4.81114962,1.53122211 4.83656062,1.39734477 4.81114962,1.26346742 Z" fill="#272524"></path>
                                <path d="M4.60786161,2.40979217 C4.60786161,2.40979217 4.57398027,2.35958817 4.56550994,2.24244549 C4.54009894,1.95795614 4.47233627,1.42244677 4.36222193,1.33040609 C4.20975592,1.20489609 3.89635356,1.27183476 3.82012056,1.27183476 C3.74388756,1.27183476 3.47283687,1.19652875 3.41354454,1.12122275 C3.41354454,1.12122275 3.16790486,1.20489609 2.95614651,1.20489609 C2.74438816,1.20489609 2.62580349,1.12122275 2.62580349,1.12122275 C2.62580349,1.12122275 2.42251548,1.22163075 2.35475281,1.22163075 C2.28699014,1.22163075 2.19381646,1.17142675 2.19381646,1.17142675 C2.19381646,1.17142675 2.18534613,1.22999809 2.11758346,1.25510009 C1.99899879,1.31367143 1.69406677,1.23836542 1.63477443,1.31367143 C1.57548209,1.38897743 1.39760508,1.59816078 1.38066442,1.97469081 C1.37219408,2.3428535 1.29596108,1.93285414 1.29596108,1.8993848 C1.29596108,1.86591547 1.34678308,1.31367143 1.36372375,1.29693676 C1.38913475,1.28020209 1.47383809,1.22999809 1.47383809,1.22999809 C1.47383809,1.22999809 1.36372375,1.02081474 1.54160076,0.861835395 C1.59242276,0.819998725 1.84653278,0.861835395 1.84653278,0.861835395 C1.84653278,0.861835395 1.82112177,0.568978707 1.92276578,0.518774704 C2.02440979,0.4685707 2.15146479,0.577346041 2.29546047,0.502040036 C2.52415948,0.393264695 2.60886282,0.694488716 2.68509583,0.635917379 C2.76132883,0.585713375 2.78673983,0.317958689 2.97308718,0.418366696 C3.34578187,0.610815377 3.19331586,0.418366696 3.45589621,0.451836032 C3.71847655,0.485305368 3.62530288,0.602448043 3.81165023,0.711223384 C4.0064679,0.819998725 4.15893391,0.736325386 4.20975592,0.794896723 C4.26904825,0.853468061 4.27751859,1.09612074 4.51468794,1.18816142 C4.75185728,1.28020209 4.61633194,2.13367015 4.62480227,2.19224149 C4.64174294,2.26754749 4.65868361,2.40979217 4.60786161,2.40979217 Z" fill="#393735"></path>
                                <path d="M2.57498149,1.07938608 C2.57498149,1.07938608 2.39710448,1.18816142 2.32934181,1.18816142 C2.26157913,1.18816142 2.16840546,1.06265141 2.15993513,0.920406732 C2.15993513,0.920406732 2.2531088,1.10448808 2.3039308,1.12122275 C2.35475281,1.12959008 2.34628247,1.01244741 2.39710448,1.02918207 C2.43945615,1.05428407 2.48180781,1.07101874 2.50721882,1.05428407 C2.56651115,1.02081474 2.48180781,0.568978707 2.33781214,0.343060691 C2.32934181,0.343060691 2.68509583,0.89530473 2.57498149,1.07938608 Z" fill="#4F4C49"></path>
                                <path d="M3.4304852,0.761427387 C3.4304852,0.761427387 3.42201487,1.05428407 3.32037086,1.07101874 C3.21872686,1.08775341 3.32037086,0.209183348 3.32037086,0.209183348 C3.32037086,0.209183348 3.23566753,0.778162055 3.22719719,0.853468061 C3.21872686,0.928774066 3.18484552,0.962243402 3.15096419,0.962243402 C3.12555319,0.962243402 3.15943452,1.07101874 3.12555319,1.08775341 C3.09167185,1.10448808 3.00696851,1.12122275 2.98155751,0.995712737 C2.98155751,0.995712737 2.97308718,1.12122275 3.06626085,1.13795741 C3.15943452,1.15469208 3.37119287,1.11285541 3.4050742,1.07101874 C3.44742587,1.02918207 3.44742587,0.845100727 3.4304852,0.761427387 Z" fill="#4F4C49"></path>
                                <path d="M1.74488877,1.19652875 C1.78724044,1.19652875 1.82959211,1.19652875 1.87194378,1.19652875 C1.91429545,1.19652875 1.95664712,1.19652875 1.99899879,1.19652875 C2.01593945,1.19652875 2.04135045,1.19652875 2.05829112,1.18816142 C2.07523179,1.18816142 2.08370212,1.17142675 2.09217246,1.15469208 C2.10064279,1.13795741 2.10064279,1.11285541 2.09217246,1.09612074 C2.09217246,1.07938608 2.08370212,1.05428407 2.07523179,1.03754941 C2.09217246,1.05428407 2.10064279,1.07101874 2.10911313,1.09612074 C2.11758346,1.12122275 2.11758346,1.13795741 2.11758346,1.16305942 C2.11758346,1.17142675 2.10911313,1.18816142 2.10064279,1.19652875 C2.09217246,1.20489609 2.09217246,1.20489609 2.08370212,1.21326342 C2.07523179,1.21326342 2.06676146,1.22163075 2.06676146,1.22163075 C2.04135045,1.22999809 2.02440979,1.22999809 1.99899879,1.22999809 C1.95664712,1.22999809 1.91429545,1.22999809 1.86347344,1.22163075 C1.82959211,1.22163075 1.78724044,1.21326342 1.74488877,1.19652875 Z" fill="#4F4C49"></path>
                                <path d="M3.54906988,0.568978707 C3.54059954,0.669386714 3.53212921,0.769794721 3.53212921,0.861835395 C3.53212921,0.912039398 3.53212921,0.962243402 3.54059954,1.00408007 C3.54059954,1.02918207 3.54906988,1.05428407 3.54906988,1.07101874 C3.55754021,1.09612074 3.56601055,1.11285541 3.57448088,1.12959008 C3.58295121,1.13795741 3.59142155,1.14632475 3.59989188,1.15469208 C3.60836221,1.16305942 3.61683255,1.16305942 3.62530288,1.17142675 C3.64224355,1.17979408 3.66765455,1.17979408 3.68459522,1.17979408 C3.69306555,1.17979408 3.71000622,1.17142675 3.71847655,1.17142675 C3.72694689,1.17142675 3.74388756,1.16305942 3.76082822,1.16305942 C3.76082822,1.16305942 3.76929856,1.16305942 3.77776889,1.16305942 C3.78623923,1.16305942 3.78623923,1.16305942 3.79470956,1.17142675 C3.80317989,1.17142675 3.80317989,1.17979408 3.80317989,1.17979408 C3.80317989,1.17979408 3.81165023,1.18816142 3.81165023,1.18816142 C3.82012056,1.19652875 3.82012056,1.20489609 3.82012056,1.20489609 C3.82012056,1.21326342 3.82012056,1.20489609 3.82859089,1.21326342 C3.83706123,1.21326342 3.84553156,1.22163075 3.86247223,1.22163075 C3.87094256,1.22163075 3.88788323,1.22163075 3.89635356,1.22163075 C3.92176457,1.22163075 3.94717557,1.22163075 3.96411624,1.21326342 C4.01493824,1.20489609 4.05728991,1.17979408 4.09964158,1.14632475 C4.06576024,1.17979408 4.02340857,1.21326342 3.97258657,1.22999809 C3.94717557,1.23836542 3.92176457,1.24673276 3.89635356,1.24673276 C3.8794129,1.24673276 3.87094256,1.24673276 3.8540019,1.24673276 C3.83706123,1.24673276 3.82859089,1.24673276 3.81165023,1.23836542 C3.81165023,1.23836542 3.80317989,1.22999809 3.79470956,1.22999809 C3.79470956,1.22999809 3.79470956,1.22163075 3.78623923,1.22163075 L3.78623923,1.21326342 C3.78623923,1.20489609 3.78623923,1.20489609 3.77776889,1.20489609 C3.77776889,1.20489609 3.77776889,1.20489609 3.76929856,1.20489609 C3.76929856,1.20489609 3.76929856,1.20489609 3.76082822,1.20489609 C3.76082822,1.20489609 3.76082822,1.20489609 3.75235789,1.20489609 C3.75235789,1.20489609 3.75235789,1.20489609 3.74388756,1.20489609 C3.72694689,1.20489609 3.70153589,1.22163075 3.67612489,1.22163075 C3.65071388,1.22999809 3.61683255,1.22163075 3.59142155,1.21326342 C3.57448088,1.20489609 3.56601055,1.20489609 3.55754021,1.19652875 C3.54906988,1.18816142 3.53212921,1.17979408 3.52365888,1.17142675 C3.50671821,1.14632475 3.49824787,1.12122275 3.48977754,1.09612074 C3.48130721,1.07101874 3.48130721,1.04591674 3.48130721,1.02081474 C3.48130721,0.970610736 3.48130721,0.920406732 3.48130721,0.870202729 C3.50671821,0.761427387 3.52365888,0.66101938 3.54906988,0.568978707 Z" fill="#4F4C49"></path>
                            </g>
                        </g>
                    </g>
                    <g transform="translate(12.197281, 8.953047)">
                        <rect id="Rectangle" fill="#213A38" opacity="0.3" x="0" y="0" width="26.1563909" height="31.7289303"></rect>
                        <rect id="Rectangle" fill="#FFFFFF" x="0.982558725" y="0.89530473" width="26.1563909" height="31.5783182"></rect>
                        <g transform="translate(15.839524, 12.634674)">
                            <path d="M6.83555941,9.10365931 L0.127055008,9.10365931 L0.127055008,0.133877343 L6.79320774,0.133877343 C6.92026274,0.133877343 7.01343642,0.23428535 7.01343642,0.351428025 L7.01343642,8.91957797 C7.02190675,9.01998597 6.94567375,9.10365931 6.83555941,9.10365931 Z" id="Path" fill="#231F20" opacity="0.3"></path>
                            <path d="M6.72544507,8.99488397 L0.0254110015,8.99488397 L0.0254110015,0.0251020018 L6.62380106,0.0251020018 C6.7847374,0.0251020018 6.91179241,0.150612011 6.91179241,0.309591355 L6.91179241,8.80243529 C6.92026274,8.91121063 6.83555941,8.99488397 6.72544507,8.99488397 Z" id="Path" fill="#4C2974"></path>
                            <rect id="Rectangle" fill="#E9BE40" x="1.54160076" y="2.3930575" width="3.8540019" height="1"></rect>
                            <path d="M6.92026274,8.50957861 L6.92026274,5.77346041 L0.0254110015,3.18795423 L0.0254110015,8.98651664 L6.42898338,8.98651664 C6.70003406,8.98651664 6.92026274,8.76896596 6.92026274,8.50957861 Z" id="Path" fill="#452369"></path>
                            <rect id="Rectangle" fill="#E9BE40" x="2.49874848" y="1.38897743" width="1.93123611" height="1"></rect>
                            <rect id="Rectangle" fill="#E9BE40" x="3.00696851" y="7.48039653" width="1" height="1"></rect>
                            <g transform="translate(2.032880, 2.510200)">
                                <path d="M0.0847033384,3.92427961 L1.02491039,0.334693357 C1.06726206,0.175714012 1.23666874,0.0753060054 1.39760508,0.117142675 L6.57297906,1.43918144 C6.7339154,1.48101811 6.83555941,1.64836478 6.79320774,1.80734413 L5.85300068,5.39693038 C5.81064901,5.55590973 5.64124234,5.65631774 5.48030599,5.61448107 L0.304932018,4.29244231 C0.143995675,4.25897297 0.0423516692,4.09162629 0.0847033384,3.92427961 Z" id="Path" fill="#231F20" opacity="0.3"></path>
                                <path d="M0.0254110015,3.86570827 L0.974088391,0.23428535 C1.01644006,0.0836733393 1.16890607,-0.00836733393 1.32137208,0.0334693357 L6.53909772,1.36387543 C6.69156373,1.4057121 6.7847374,1.55632411 6.74238573,1.70693612 L5.79370834,5.33835905 C5.75135668,5.48897106 5.59889067,5.58101173 5.44642466,5.53917506 L0.228699014,4.20876897 C0.0762330045,4.1669323 -0.00847033384,4.01632029 0.0254110015,3.86570827 Z" id="Path" fill="#B7EAE6"></path>
                                <path d="M1.36372375,0.0418366696 C1.19431707,-9.71445147e-17 1.01644006,0.100408007 0.974088391,0.267754686 L0.0423516692,3.82387161 C1.38777878e-17,3.99121828 0.101644006,4.1669323 0.271050683,4.20876897 L0.33034302,4.22550363 L5.14996297,0.995712737 L1.36372375,0.0418366696 Z" id="Path" fill="#DDEED6"></path>
                                <polygon id="Rectangle" fill="#6DAAAA" transform="translate(3.649246, 2.878858) rotate(-75.853979) translate(-3.649246, -2.878858) " points="3.51442531 1.13481488 3.77400979 1.13557159 3.78406664 4.62290072 3.52448216 4.62214401"></polygon>
                                <polygon id="Rectangle" fill="#6DAAAA" transform="translate(2.930975, 3.603270) rotate(-75.853979) translate(-2.930975, -3.603270) " points="2.79747268 2.31630398 3.05705717 2.31706068 3.06447775 4.89023557 2.80489327 4.88947887"></polygon>
                            </g>
                        </g>
                        <rect id="Rectangle" fill="#DADBDC" x="4.48927693" y="24.0979217" width="7.16590243" height="1"></rect>
                        <rect id="Rectangle" fill="#DADBDC" x="4.48927693" y="26.7754686" width="5.97158536" height="1"></rect>
                        <rect id="Rectangle" fill="#DADBDC" x="15.8649353" y="24.0979217" width="7.16590243" height="1"></rect>
                        <rect id="Rectangle" fill="#DADBDC" x="15.8649353" y="26.7754686" width="5.97158536" height="1"></rect>
                        <rect id="Rectangle" fill="#858789" x="4.48927693" y="5.08733903" width="9.67312124" height="1"></rect>
                        <rect id="Rectangle" fill="#DADBDC" x="4.48927693" y="8.23345659" width="17.5759427" height="1"></rect>
                        <g transform="translate(4.489277, 12.551001)">
                            <rect id="Rectangle" fill="#F05A24" x="0" y="0.0669386714" width="7.37766077" height="8.97814931"></rect>
                            <polygon id="Path" fill="#DA5222" points="0 4.76101301 0 9.18733265 7.37766077 9.18733265 7.37766077 5.11244103"></polygon>
                            <g transform="translate(0.762330, 1.924487)" id="Path">
                                <path d="M2.35475281,5.45550172 C2.35475281,5.45550172 2.24463847,4.91162502 2.31240114,4.86978835 C2.38016381,4.81958434 3.20178619,4.70244167 3.54906988,4.84468634 L3.60836221,5.45550172 L2.51568915,5.94080709 L2.35475281,5.45550172 Z" fill="#AFB1B4"></path>
                                <path d="M4.61633194,5.76509308 C4.61633194,5.76509308 4.56550994,5.51407306 4.15046358,5.38019572 C3.73541722,5.24631837 3.42201487,5.1040737 3.42201487,4.81958434 C3.42201487,4.52672766 3.42201487,4.05815696 3.42201487,4.05815696 L2.92226517,4.05815696 L2.42251548,4.05815696 C2.42251548,4.05815696 2.42251548,4.53509499 2.42251548,4.81958434 C2.42251548,5.11244103 2.10911313,5.24631837 1.69406677,5.38019572 C1.27902041,5.51407306 1.22819841,5.76509308 1.22819841,5.76509308 L0.0931736722,8.32549726 L0.804681715,8.32549726 L1.48230842,6.86958116 L1.76182944,8.32549726 L2.92226517,8.32549726 L4.08270091,8.32549726 L4.36222193,6.86958116 L5.03984863,8.32549726 L5.75135668,8.32549726 L4.61633194,5.76509308 Z" fill="#BFA573"></path>
                                <path d="M4.72644628,1.85754813 C4.72644628,3.27162757 4.21822625,4.42631965 2.91379484,4.42631965 C1.60936343,4.42631965 1.1265544,3.2548929 1.1265544,1.8491808 C1.1265544,0.435101364 2.33781214,0.150612011 2.93920584,0.150612011 C3.53212921,0.142244677 4.72644628,0.443468698 4.72644628,1.85754813 Z" fill="#D0B37D"></path>
                                <path d="M2.27004947,3.57285159 C2.46486715,3.68999426 2.67662549,3.70672893 2.89685417,3.70672893 C3.10861252,3.70672893 3.32037086,3.68162693 3.52365888,3.57285159 C3.44742587,3.65652493 3.23566753,3.81550427 2.89685417,3.81550427 C2.55804082,3.81550427 2.33781214,3.66489226 2.27004947,3.57285159 Z" fill="#494032"></path>
                                <path d="M2.49027815,2.7612202 C2.49027815,2.95366888 2.32934181,3.11264822 2.13452413,3.11264822 C1.93970645,3.11264822 1.77877011,2.95366888 1.77877011,2.7612202 C1.77877011,2.56877152 1.93970645,2.40979217 2.13452413,2.40979217 C2.32934181,2.40979217 2.49027815,2.56040418 2.49027815,2.7612202 Z" fill="#896B4E"></path>
                                <path d="M2.39710448,2.7612202 C2.39710448,2.89509754 2.28699014,3.00387288 2.15146479,3.00387288 C2.01593945,3.00387288 1.90582511,2.89509754 1.90582511,2.7612202 C1.90582511,2.62734285 2.01593945,2.51856751 2.15146479,2.51856751 C2.28699014,2.51020018 2.39710448,2.61897552 2.39710448,2.7612202 Z" fill="#2A1D01"></path>
                                <path d="M2.04135045,2.62734285 C2.04135045,2.66917952 2.00746912,2.70264886 1.97358778,2.70264886 C1.93123611,2.70264886 1.90582511,2.66917952 1.90582511,2.62734285 C1.90582511,2.58550618 1.93970645,2.56040418 1.97358778,2.56040418 C2.00746912,2.56040418 2.04135045,2.59387352 2.04135045,2.62734285 Z" fill="#FFFFFF"></path>
                                <path d="M3.37119287,2.7612202 C3.37119287,2.95366888 3.53212921,3.11264822 3.72694689,3.11264822 C3.92176457,3.11264822 4.08270091,2.95366888 4.08270091,2.7612202 C4.08270091,2.56877152 3.92176457,2.40979217 3.72694689,2.40979217 C3.53212921,2.40979217 3.37119287,2.56040418 3.37119287,2.7612202 Z" fill="#896B4E"></path>
                                <path d="M3.46436654,2.7612202 C3.46436654,2.89509754 3.57448088,3.00387288 3.71000622,3.00387288 C3.84553156,3.00387288 3.9556459,2.89509754 3.9556459,2.7612202 C3.9556459,2.62734285 3.84553156,2.51856751 3.71000622,2.51856751 C3.57448088,2.51020018 3.46436654,2.61897552 3.46436654,2.7612202 Z" fill="#2A1D01"></path>
                                <path d="M3.47283687,2.62734285 C3.47283687,2.66917952 3.50671821,2.70264886 3.54059954,2.70264886 C3.58295121,2.70264886 3.60836221,2.66917952 3.60836221,2.62734285 C3.60836221,2.58550618 3.57448088,2.56040418 3.54059954,2.56040418 C3.50671821,2.56040418 3.47283687,2.59387352 3.47283687,2.62734285 Z" fill="#FFFFFF"></path>
                                <path d="M4.73491661,5.53917506 C4.73491661,5.53917506 4.70950561,5.48897106 4.57398027,5.43039972 C4.38763293,5.34672638 4.38763293,5.34672638 3.70153589,5.11244103 L2.92226517,5.68978707 L2.14299446,5.11244103 C1.46536775,5.34672638 1.46536775,5.34672638 1.27055008,5.43039972 C1.13502473,5.48897106 1.10961373,5.53917506 1.10961373,5.53917506 L0.0338813353,8.33386459 L0.847033384,8.33386459 L1.46536775,7.03692783 L1.56701176,8.33386459 L2.89685417,8.36733393 L2.89685417,8.36733393 L2.92226517,8.36733393 L2.94767618,8.36733393 L2.94767618,8.36733393 L4.27751859,8.33386459 L4.37916259,7.03692783 L4.99749696,8.33386459 L5.81064901,8.33386459 L4.73491661,5.53917506 Z" fill="#00B4AC"></path>
                                <path d="M2.3039308,4.86978835 C2.32087147,5.08733903 2.93073551,5.68141974 2.93073551,5.68141974 C2.93073551,5.68141974 3.57448088,5.1542777 3.54906988,4.84468634 L3.83706123,5.1542777 C3.83706123,5.38856305 3.28648953,6.14999044 3.28648953,6.14999044 L2.93920584,5.69815441 L2.60039249,6.16672511 C2.60039249,6.16672511 2.01593945,5.48060372 2.01593945,5.1542777 L2.3039308,4.86978835 Z" fill="#F4F4F4"></path>
                                <path d="M2.60039249,6.19182711 L2.58345182,6.17509244 C2.55804082,6.14999044 1.99052845,5.48060372 1.99052845,5.14591037 L2.03288012,5.14591037 C2.03288012,5.43039972 2.49874848,6.01611309 2.60039249,6.12488844 L2.93920584,5.65631774 L3.28648953,6.10815377 C3.3796632,5.99101109 3.84553156,5.35509371 3.84553156,5.14591037 L3.88788323,5.16264503 C3.88788323,5.40529772 3.3288412,6.12488844 3.31190053,6.14999044 L3.29495986,6.16672511 L2.94767618,5.71488907 L2.60039249,6.19182711 Z" fill="#DBDCDD"></path>
                                <path d="M4.78573862,1.30530409 C4.77726828,1.24673276 4.76032762,1.19652875 4.74338695,1.13795741 C4.72644628,1.08775341 4.70950561,0.970610736 4.70950561,0.970610736 C4.70950561,0.970610736 4.68409461,0.962243402 4.67562428,0.953876068 C4.65868361,0.920406732 4.65021328,0.828366059 4.65021328,0.828366059 C4.65021328,0.828366059 4.5570396,0.753060054 4.51468794,0.694488716 C4.4808066,0.66101938 4.38763293,0.543876705 4.38763293,0.543876705 L4.34528126,0.543876705 L4.22669658,0.460203366 C4.22669658,0.460203366 4.16740425,0.368162693 4.13352291,0.334693357 C4.11658224,0.326326023 4.08270091,0.351428025 4.07423058,0.334693357 C4.04881957,0.317958689 4.0064679,0.284489354 4.0064679,0.284489354 L3.9556459,0.217550682 L3.79470956,0.175714012 C3.79470956,0.175714012 3.76082822,0.150612011 3.73541722,0.142244677 C3.70153589,0.133877343 3.61683255,0.150612011 3.61683255,0.150612011 L3.57448088,0.108775341 L3.4304852,0.125510009 L3.3034302,0.0836733393 L3.26107853,0.117142675 L3.16790486,0.108775341 C3.16790486,0.108775341 3.12555319,0.0836733393 3.10861252,0.0836733393 C3.08320152,0.0836733393 3.02390918,0.0920406732 3.02390918,0.0920406732 C3.02390918,0.0920406732 2.95614651,0.0669386714 2.92226517,0.0669386714 C2.87144317,0.0669386714 2.73591783,0.100408007 2.73591783,0.100408007 L2.66815516,0.0920406732 L2.55804082,0.125510009 C2.55804082,0.125510009 2.49874848,0.117142675 2.47333748,0.117142675 C2.43945615,0.125510009 2.38016381,0.150612011 2.38016381,0.150612011 L2.2785198,0.150612011 L2.23616813,0.167346679 L2.14299446,0.158979345 L2.07523179,0.19244868 C2.07523179,0.19244868 2.03288012,0.184081346 2.01593945,0.19244868 C2.00746912,0.19244868 1.99052845,0.184081346 1.99052845,0.184081346 L1.88888445,0.259387352 L1.80418111,0.317958689 L1.76182944,0.317958689 C1.76182944,0.317958689 1.73641844,0.376530027 1.71100744,0.393264695 C1.68559643,0.418366696 1.61783376,0.435101364 1.59242276,0.451836032 C1.57548209,0.4685707 1.59242276,0.476938034 1.56701176,0.493672702 C1.55854143,0.502040036 1.50771942,0.51040737 1.49924909,0.51040737 C1.48230842,0.518774704 1.50771942,0.535509371 1.49077876,0.543876705 C1.43148642,0.585713375 1.37219408,0.635917379 1.33831275,0.677754048 C1.31290174,0.70285605 1.28749074,0.736325386 1.27055008,0.769794721 C1.22819841,0.828366059 1.19431707,0.89530473 1.16890607,0.962243402 C1.16043574,0.987345404 1.1519654,1.01244741 1.13502473,1.03754941 C1.1011434,1.12122275 1.08420273,1.20489609 1.05879173,1.29693676 C1.03338073,1.4308141 1.0503214,1.56469144 1.0503214,1.70693612 C1.02491039,2.55203685 1.26207974,3.02897488 1.26207974,3.02897488 C1.43995675,2.90346487 1.21125774,1.8491808 1.74488877,1.49775277 C1.91429545,1.38897743 2.81215083,1.3806101 2.91379484,1.3806101 C3.01543885,1.3806101 3.9048239,1.38897743 4.07423058,1.49775277 C4.60786161,1.8491808 4.38763293,2.89509754 4.5570396,3.02897488 C4.5570396,3.02897488 4.80267929,2.55203685 4.76879795,1.70693612 C4.78573862,1.57305878 4.81114962,1.43918144 4.78573862,1.30530409 Z" fill="#272524"></path>
                                <path d="M4.58245061,2.45999617 C4.58245061,2.45999617 4.54856927,2.40979217 4.54009894,2.2926495 C4.51468794,2.00816014 4.44692526,1.47265077 4.33681092,1.3806101 C4.18434492,1.25510009 3.87094256,1.32203876 3.79470956,1.32203876 C3.71847655,1.32203876 3.44742587,1.24673276 3.38813353,1.17142675 C3.38813353,1.17142675 3.14249385,1.25510009 2.93073551,1.25510009 C2.71897716,1.25510009 2.60039249,1.17142675 2.60039249,1.17142675 C2.60039249,1.17142675 2.39710448,1.27183476 2.32934181,1.27183476 C2.26157913,1.27183476 2.16840546,1.22163075 2.16840546,1.22163075 C2.16840546,1.22163075 2.15993513,1.28020209 2.09217246,1.30530409 C1.97358778,1.36387543 1.66865577,1.28856942 1.60936343,1.36387543 C1.55007109,1.43918144 1.37219408,1.64836478 1.35525341,2.02489481 C1.34678308,2.3930575 1.27055008,1.98305814 1.27055008,1.94958881 C1.27055008,1.91611947 1.32137208,1.36387543 1.33831275,1.34714076 C1.36372375,1.33040609 1.44842709,1.28020209 1.44842709,1.28020209 C1.44842709,1.28020209 1.33831275,1.07101874 1.51618976,0.912039398 C1.56701176,0.870202729 1.82112177,0.912039398 1.82112177,0.912039398 C1.82112177,0.912039398 1.79571077,0.619182711 1.89735478,0.568978707 C1.99899879,0.518774704 2.12605379,0.627550045 2.27004947,0.552244039 C2.49874848,0.443468698 2.58345182,0.74469272 2.65968482,0.686121382 C2.73591783,0.635917379 2.76132883,0.368162693 2.94767618,0.4685707 C3.32037086,0.66101938 3.16790486,0.4685707 3.4304852,0.502040036 C3.69306555,0.535509371 3.59989188,0.652652046 3.78623923,0.761427387 C3.9810569,0.870202729 4.13352291,0.786529389 4.18434492,0.845100727 C4.23516692,0.903672064 4.25210759,1.14632475 4.48927693,1.23836542 C4.72644628,1.33040609 4.59092094,2.18387416 4.59939127,2.24244549 C4.60786161,2.30101683 4.63327261,2.45999617 4.58245061,2.45999617 Z" fill="#393735"></path>
                                <path d="M2.54957048,1.12122275 C2.54957048,1.12122275 2.37169347,1.22999809 2.3039308,1.22999809 C2.23616813,1.22999809 2.14299446,1.10448808 2.13452413,0.962243402 C2.13452413,0.962243402 2.2276978,1.14632475 2.2785198,1.16305942 C2.32934181,1.17142675 2.32087147,1.05428407 2.37169347,1.07101874 C2.41404514,1.09612074 2.45639681,1.11285541 2.48180781,1.09612074 C2.54110015,1.06265141 2.45639681,0.610815377 2.31240114,0.384897361 C2.3039308,0.384897361 2.65968482,0.9371414 2.54957048,1.12122275 Z" fill="#4F4C49"></path>
                                <path d="M3.4050742,0.803264057 C3.4050742,0.803264057 3.39660387,1.09612074 3.29495986,1.11285541 C3.19331586,1.12959008 3.29495986,0.251020018 3.29495986,0.251020018 C3.29495986,0.251020018 3.21025652,0.819998725 3.20178619,0.89530473 C3.19331586,0.970610736 3.15943452,1.00408007 3.12555319,1.00408007 C3.09167185,1.00408007 3.13402352,1.11285541 3.10014218,1.12959008 C3.06626085,1.14632475 2.98155751,1.16305942 2.95614651,1.03754941 C2.95614651,1.03754941 2.94767618,1.16305942 3.04084985,1.17979408 C3.13402352,1.19652875 3.34578187,1.15469208 3.3796632,1.11285541 C3.42201487,1.07101874 3.42201487,0.886937396 3.4050742,0.803264057 Z" fill="#4F4C49"></path>
                                <path d="M1.71947777,1.23836542 C1.76182944,1.23836542 1.80418111,1.23836542 1.84653278,1.23836542 C1.88888445,1.23836542 1.93123611,1.23836542 1.97358778,1.23836542 C1.99052845,1.23836542 2.01593945,1.23836542 2.03288012,1.22999809 C2.04982079,1.22999809 2.05829112,1.21326342 2.06676146,1.19652875 C2.07523179,1.17979408 2.07523179,1.15469208 2.06676146,1.13795741 C2.06676146,1.12122275 2.05829112,1.09612074 2.04982079,1.07938608 C2.06676146,1.09612074 2.07523179,1.11285541 2.08370212,1.13795741 C2.09217246,1.16305942 2.09217246,1.17979408 2.09217246,1.20489609 C2.09217246,1.21326342 2.08370212,1.22999809 2.07523179,1.23836542 C2.06676146,1.24673276 2.06676146,1.24673276 2.05829112,1.25510009 C2.04982079,1.25510009 2.04135045,1.26346742 2.04135045,1.26346742 C2.01593945,1.27183476 1.99899879,1.27183476 1.97358778,1.27183476 C1.93123611,1.27183476 1.88888445,1.27183476 1.83806244,1.26346742 C1.81265144,1.26346742 1.76182944,1.25510009 1.71947777,1.23836542 Z" fill="#4F4C49"></path>
                                <path d="M3.52365888,0.610815377 C3.51518854,0.711223384 3.50671821,0.811631391 3.50671821,0.903672064 C3.50671821,0.953876068 3.50671821,1.00408007 3.51518854,1.04591674 C3.51518854,1.07101874 3.52365888,1.09612074 3.52365888,1.11285541 C3.53212921,1.13795741 3.54059954,1.15469208 3.54906988,1.17142675 C3.55754021,1.17979408 3.56601055,1.18816142 3.57448088,1.19652875 C3.58295121,1.20489609 3.59142155,1.20489609 3.59989188,1.21326342 C3.61683255,1.22163075 3.64224355,1.22163075 3.65918422,1.22163075 C3.66765455,1.22163075 3.68459522,1.21326342 3.69306555,1.21326342 C3.70153589,1.21326342 3.71847655,1.20489609 3.73541722,1.20489609 C3.73541722,1.20489609 3.74388756,1.20489609 3.75235789,1.20489609 C3.76082822,1.20489609 3.76082822,1.20489609 3.76929856,1.21326342 C3.77776889,1.21326342 3.77776889,1.22163075 3.77776889,1.22163075 C3.77776889,1.22163075 3.78623923,1.22999809 3.78623923,1.22999809 C3.79470956,1.23836542 3.79470956,1.24673276 3.79470956,1.24673276 C3.79470956,1.25510009 3.79470956,1.24673276 3.80317989,1.25510009 C3.81165023,1.25510009 3.82012056,1.26346742 3.83706123,1.26346742 C3.84553156,1.26346742 3.86247223,1.26346742 3.87094256,1.26346742 C3.89635356,1.26346742 3.92176457,1.26346742 3.93870523,1.25510009 C3.98952724,1.24673276 4.03187891,1.22163075 4.07423058,1.18816142 C4.04034924,1.22163075 3.99799757,1.25510009 3.94717557,1.27183476 C3.92176457,1.28020209 3.89635356,1.28856942 3.87094256,1.28856942 C3.8540019,1.28856942 3.84553156,1.28856942 3.82859089,1.28856942 C3.81165023,1.28856942 3.80317989,1.28856942 3.78623923,1.28020209 C3.78623923,1.28020209 3.77776889,1.27183476 3.76929856,1.27183476 C3.76929856,1.27183476 3.76929856,1.26346742 3.76082822,1.26346742 L3.76082822,1.25510009 C3.76082822,1.24673276 3.76082822,1.24673276 3.75235789,1.24673276 C3.75235789,1.24673276 3.75235789,1.24673276 3.74388756,1.24673276 C3.74388756,1.24673276 3.74388756,1.24673276 3.73541722,1.24673276 C3.73541722,1.24673276 3.73541722,1.24673276 3.72694689,1.24673276 C3.72694689,1.24673276 3.72694689,1.24673276 3.71847655,1.24673276 C3.70153589,1.24673276 3.67612489,1.26346742 3.65071388,1.26346742 C3.62530288,1.27183476 3.59142155,1.26346742 3.56601055,1.25510009 C3.54906988,1.24673276 3.54059954,1.24673276 3.53212921,1.23836542 C3.52365888,1.22999809 3.50671821,1.22163075 3.49824787,1.21326342 C3.48130721,1.18816142 3.47283687,1.16305942 3.46436654,1.13795741 C3.45589621,1.11285541 3.45589621,1.08775341 3.45589621,1.06265141 C3.45589621,1.01244741 3.45589621,0.962243402 3.45589621,0.912039398 C3.48130721,0.803264057 3.49824787,0.70285605 3.52365888,0.610815377 Z" fill="#4F4C49"></path>
                            </g>
                        </g>
                    </g>
                </g>
            </g>
        </g>
    </g>
</svg>