<svg height="780" viewBox="0 0 785 780" width="785" xmlns="http://www.w3.org/2000/svg" xmlns:xlink="http://www.w3.org/1999/xlink"><defs><path id="a" d="m385.65616.03122025c212.60396 0 384.952874 172.50524075 384.952874 385.30204075 0 212.794326-172.348914 385.299567-384.952874 385.299567-212.602725 0-384.95163795-172.505241-384.95163795-385.299567 0-212.7968 172.34891295-385.30204075 384.95163795-385.30204075"/><path id="b" d="m0 0h96v38h-96z"/><filter id="c" height="115.8%" width="106.2%" x="-1.6%" y="-3.9%"><feOffset dx="3" dy="3" in="SourceAlpha" result="shadowOffsetOuter1"/><feColorMatrix in="shadowOffsetOuter1" type="matrix" values="0 0 0 0 0   0 0 0 0 0   0 0 0 0 0  0 0 0 0.2 0"/></filter><path id="d" d="m0 0h137v38h-137z"/><filter id="e" height="115.8%" width="104.4%" x="-1.1%" y="-3.9%"><feOffset dx="3" dy="3" in="SourceAlpha" result="shadowOffsetOuter1"/><feColorMatrix in="shadowOffsetOuter1" type="matrix" values="0 0 0 0 0   0 0 0 0 0   0 0 0 0 0  0 0 0 0.2 0"/></filter><path id="f" d="m0 0h137v38h-137z"/><filter id="g" height="115.8%" width="104.4%" x="-1.1%" y="-3.9%"><feOffset dx="3" dy="3" in="SourceAlpha" result="shadowOffsetOuter1"/><feColorMatrix in="shadowOffsetOuter1" type="matrix" values="0 0 0 0 0   0 0 0 0 0   0 0 0 0 0  0 0 0 0.2 0"/></filter><path id="h" d="m0 0h96v38h-96z"/><filter id="i" height="115.8%" width="106.2%" x="-1.6%" y="-3.9%"><feOffset dx="3" dy="3" in="SourceAlpha" result="shadowOffsetOuter1"/><feColorMatrix in="shadowOffsetOuter1" type="matrix" values="0 0 0 0 0   0 0 0 0 0   0 0 0 0 0  0 0 0 0.2 0"/></filter><mask id="j" fill="#fff"><use fill="#fff" fill-rule="evenodd" xlink:href="#a"/></mask><mask id="k" fill="#fff"><path d="m657.858433 113.64613c150.334299 150.469421 150.334299 394.428674 0 544.898095-150.333063 150.469421-394.071236 150.469421-544.404299 0-150.3330631-150.469421-150.3330631-394.428674 0-544.898095 150.333063-150.4706585 394.071236-150.4706585 544.404299 0z" fill="#fff" fill-rule="evenodd"/></mask></defs><g fill="none" fill-rule="evenodd"><path d="m784.529124 393.751145c0 212.796801-172.348914 385.302041-384.952874 385.302041-212.602725 0-384.9516382-172.50524-384.9516382-385.302041s172.3489132-385.30080386 384.9516382-385.30080386c132.87763 0 250.029299 67.38439556 319.208196 169.87465186 41.508575 61.495886 65.744678 135.628744 65.744678 215.426152" fill="#00a39b"/><use fill="#1dd1c9" xlink:href="#a"/><g mask="url(#j)" opacity=".5"><path d="m-207.66971 364.006647 615.39426 615.952446-1.748016 1.749601-615.39426-615.952446zm9.393545-9.402189 615.394259 615.952446-1.748015 1.749601-615.39426-615.952446zm9.393545-9.402065 615.394259 615.952446-1.748015 1.749601-615.39426-615.952446zm9.393668-9.402065 615.39426 615.952446-1.748016 1.749601-615.39426-615.952446zm9.393545-9.402189 615.39426 615.952446-1.748016 1.749601-615.39426-615.952446zm9.393545-9.402066 615.39426 615.952447-1.748016 1.749601-615.39426-615.952446zm9.393668-9.402065 615.39426 615.952446-1.748016 1.749602-615.394259-615.952447zm9.393545-9.402189 615.39426 615.952447-1.748016 1.749601-615.39426-615.952446zm9.393545-9.402065 615.39426 615.952446-1.748016 1.749602-615.39426-615.952447zm9.393669-9.402065 615.394259 615.952446-1.748015 1.749601-615.39426-615.952446zm9.393544-9.402189 615.39426 615.952446-1.748015 1.749601-615.39426-615.952446zm9.392309-9.402065 615.395496 615.952446-1.748016 1.749601-615.395496-615.952446zm9.3936686-9.402189 615.3954964 615.953683-1.748016 1.749602-615.3954961-615.953684zm9.3935449-9.402065 615.3954965 615.953683-1.748016 1.749602-615.3954963-615.953684zm9.3935449-9.402065 615.3954956 615.953683-1.748015 1.749601-615.3954964-615.953683zm9.3936685-9.402066 615.3954961 615.953684-1.748016 1.749601-615.3954959-615.953683zm9.3935449-9.402189 615.3954962 615.953684-1.748016 1.749601-615.395496-615.953683zm9.3935448-9.402065 615.3954964 615.953684-1.748016 1.749601-615.3954961-615.953684zm9.3936685-9.402065 615.3954959 615.953684-1.748016 1.749601-615.3954956-615.953684zm9.3935449-9.402189 615.395496 615.953684-1.748016 1.749601-615.3954957-615.953684zm9.3935449-9.402065 615.3954961 615.953683-1.748016 1.749602-615.3954958-615.953684zm9.3936685-9.402065 615.3954956 615.953683-1.748015 1.749602-615.3954963-615.953684zm9.3935449-9.400952 615.3942597 615.952446-1.748016 1.749602-615.39425945-615.952447zm9.39354488-9.402065 615.39425982 615.952446-1.748016 1.749601-615.39425957-615.952446zm9.39366852-9.402065 615.3942603 615.952446-1.748016 1.749601-615.3942601-615.952446zm9.3935449-9.402189 615.3942594 615.952446-1.748015 1.749601-615.3942602-615.952446zm9.3935448-9.402065 615.3942596 615.952446-1.748015 1.749601-615.3942603-615.952446zm9.3936686-9.402066 615.39426 615.952447-1.748016 1.749601-615.3942598-615.952446zm9.3935448-9.402188 615.3942602 615.952446-1.748016 1.749601-615.3942599-615.952446zm9.3935449-9.4020657 615.3942603 615.9524467-1.748016 1.749601-615.39426-615.9524464zm9.3936685-9.4020652 615.3942598 615.9524459-1.748016 1.749602-615.3942595-615.9524466zm9.3935449-9.4021889 615.3942599 615.9524458-1.748016 1.749602-615.3942596-615.9524465zm9.3935449-9.4020652 615.39426 615.952446-1.748016 1.749601-615.3942598-615.9524457zm9.393668-9.4020652 615.39426 615.9524462-1.748015 1.749601-615.39426-615.9524459zm9.393545-9.4021889 615.39426 615.9524461-1.748016 1.749601-615.394259-615.9524458zm18.785978-18.8042541 615.395496 615.9536832-1.748016 1.749602-615.395496-615.9536839zm18.787089-18.80413038 615.395496 615.95368358-1.748015 1.749601-615.395496-615.95368332zm-28.180758 28.20631928 615.395496 615.9536833-1.748016 1.749602-615.395496-615.953684zm18.787213-18.8042541 615.395496 615.9536834-1.748015 1.749601-615.395496-615.9536831zm18.787214-18.80425411 615.395496 615.95368351-1.748016 1.749601-615.395496-615.95368324zm9.393545-9.40206519 615.395496 615.9536837-1.748016 1.749601-615.395496-615.9536834zm9.393545-9.4020652 615.395496 615.9536839-1.748016 1.749601-615.395496-615.9536836zm9.393668-9.4021889 615.395496 615.9536838-1.748016 1.749601-615.395496-615.9536835zm9.393545-9.4020652 615.395496 615.953684-1.748016 1.749601-615.395496-615.9536837zm9.393545-9.4020652 615.395496 615.9536832-1.748016 1.749602-615.395496-615.9536839zm9.393668-9.4021889 615.395496 615.9536831-1.748015 1.749602-615.395496-615.9536838zm9.393545-9.4008279 615.39426 615.952446-1.748016 1.749602-615.39426-615.9524467zm9.393669-9.4020652 615.39426 615.9524462-1.748016 1.749601-615.39426-615.9524459zm9.393545-9.4021889 615.394259 615.9524461-1.748015 1.749601-615.39426-615.9524458zm9.393544-9.4020652 615.39426 615.9524463-1.748015 1.749601-615.39426-615.952446zm9.393669-9.4020647 615.39426 615.952446-1.748016 1.749601-615.39426-615.952446zm9.393545-9.402189 615.39426 615.952446-1.748016 1.749601-615.39426-615.952446zm9.393545-9.402066 615.39426 615.952447-1.748016 1.749601-615.39426-615.952446zm9.393668-9.402065 615.39426 615.952446-1.748016 1.749602-615.394259-615.952446zm9.393545-9.402189 615.39426 615.952447-1.748016 1.749601-615.39426-615.952446zm9.393545-9.402065 615.39426 615.952446-1.748016 1.749602-615.39426-615.952447zm9.393669-9.402065 615.394259 615.952446-1.748015 1.749601-615.39426-615.952446zm9.393544-9.402065 615.39426 615.952446-1.748015 1.749601-615.39426-615.952446zm9.393545-9.402189 615.39426 615.952446-1.748016 1.749601-615.394259-615.952446zm9.392309-9.402065 615.395496 615.953683-1.748016 1.749601-615.395496-615.953683zm9.393668-9.402189 615.395497 615.953683-1.748016 1.749602-615.395496-615.953684zm9.393545-9.402065 615.395496 615.953683-1.748015 1.749601-615.395496-615.953683zm9.393545-9.402066 615.395496 615.953684-1.748015 1.749601-615.395497-615.953683z" fill="#00c5bc" fill-rule="evenodd" mask="url(#k)" transform="translate(0 -2)"/></g><path d="m600.625628 385.875217c0 118.22182-95.751456 214.060127-213.866141 214.060127s-213.866142-95.838307-213.866142-214.060127c0-118.223057 95.751457-214.060126 213.866142-214.060126s213.866141 95.837069 213.866141 214.060126" fill="#00b4ac" mask="url(#j)"/><g fill="#fff" transform="translate(157 168)"><path d="m388.953518 79.5898139c6.249973 7.2517131 12.013192 14.9477623 17.21059 22.9371471l-16.657123-4.9198766-1.746879 5.9347956 27.740045 8.197319 8.179694-27.7926638-5.923823-1.7513524-5.435833 18.4715082c-5.598908-8.7679017-11.864942-17.2003853-18.690619-25.1216967-61.123475-70.92296725-160.240954-94.5854099-246.64476-58.8800984l2.354704 5.7219098c83.93915-34.6903934 180.232467-11.7000246 239.614004 57.2030082"/><path d="m367.187824 377.060804c-36.872246 31.895656-83.593234 49.956246-132.1204 51.198902l12.774208-13.702631-4.514212-4.22305-19.740723 21.173418 21.135508 19.779763 4.215242-4.523812-13.181896-12.333729c49.758877-1.397369 97.652275-19.972845 135.469614-52.684148 30.470317-26.358164 52.946253-60.515106 65.000213-98.781229l-5.890467-1.861508c-11.708043 37.169516-33.544033 70.352385-63.147087 95.958024"/><path d="m70.2667938 355.255909c-45.4818646-52.776975-61.8610188-123.849705-44.3440459-191.14991l8.0475042 16.326566 5.5383729-2.739041-12.8038583-25.981902-25.93263128 12.827574 2.73397708 5.548631 16.6250021-8.222074c-18.31999377 69.472377-1.5109146 142.93264 45.4596271 197.434976 9.6164833 11.156672 20.3497833 21.335557 31.8996937 30.254459l3.7717276-4.902549c-11.2225255-8.663935-21.651913-18.554435-30.9953692-29.39673"/><path d="m578.101369 484.105447-4.247362 4.494106 6.754023 6.402648c-7.445857.751287-20.66358 1.548369-30.276357-.860205l-1.497325 6.005344c5.450659 1.363951 11.789582 1.808287 17.731936 1.808287 4.768708 0 9.274273-.287147 12.863158-.611426l-5.073856 5.374115 4.488269 4.251516 13.034881-13.802885z"/><path d="m566.309441 559.090438.166781 8.708492-33.756525-31.263189-4.19424 4.544852 33.378488 30.912918-8.138925.155951.117364 6.188525 18.967352-.363885-.363212-19.002484z"/><path d="m502.311522 583.167759-4.246127 6.153869c-1.388609-9.46473-4.293073-23.677295-9.894452-31.809017l-5.084975 3.515082c5.178866 7.51782 7.852308 21.845492 9.067958 30.683943l-7.637346-5.288713-3.513525 5.09068 15.604548 10.80764 2.38559-3.458148.186547-.014852c-.003706-.040845-.009883-.123771-.018531-.230213l8.231581-11.930238z"/></g><g transform="translate(590.684713 602.059377)"><path d="m47.945271 95.8896449c-26.4789532 0-47.945271-21.4654206-47.945271-47.9452711 0-26.4789532 21.4663178-47.9443738 47.945271-47.9443738 26.4789533 0 47.9452711 21.4654206 47.9452711 47.9443738 0 26.4798505-21.4663178 47.9452711-47.9452711 47.9452711z" fill="#fff"/><path d="m21.8751386 4.54796143c.527 0 .9600693.39857067 1.0154697.91019662l.0059874.11126052v.22804286c0 .52632-.397936.95997867-.9100697 1.01546062l-.1113874.00599652h-18.58294289c-.52632 0-.95997866.39857067-1.01546062.91019662l-.00599652.11126052v29.99018569c0 .52632.39857067.9599787.91019662 1.0154607l.11126052.0059965h29.20114289c.52632 0 .9599786-.3985707 1.0154606-.9101967l.0059965-.1112605v-19.9067571c0-.527.3985707-.9600693.9101966-1.0154697l.1112606-.0059875h.2280428c.52632 0 .9599787.397936 1.0154606.9100697l.0059966.1113875v22.0735286c0 .58004-.4391894 1.0578986-1.0030272 1.1190352l-.1226157.0066076h-33.53468571c-.58004 0-1.05789867-.4391893-1.1190352-1.0030272l-.00660766-.1226156v-34.32372861c0-.58004.43918933-1.05789867 1.0030272-1.1190352l.12261566-.00660766zm1.1507057 26.66957567c.5675571 0 1.0280143.4597286 1.0280143 1.0272858 0 .5675571-.4604572 1.0272857-1.0280143 1.0272857h-14.08110001c-.56755715 0-1.02801429-.4597286-1.02801429-1.0272857 0-.5675572.46045714-1.0272858 1.02801429-1.0272858zm2.0562471-6.6155014c.5675572 0 1.0280143.4604572 1.0280143 1.0272857 0 .5675572-.4604571 1.0272857-1.0280143 1.0272857h-16.13712854c-.56755715 0-1.02801429-.4597285-1.02801429-1.0272857 0-.5668285.46045714-1.0272857 1.02801429-1.0272857zm-2.9142857-6.6151371c.5675572 0 1.0280143.4597285 1.0280143 1.0272857 0 .5675571-.4604571 1.0272857-1.0280143 1.0272857h-13.22284284c-.56755715 0-1.02801429-.4597286-1.02801429-1.0272857 0-.5675572.46045714-1.0272857 1.02801429-1.0272857zm7.72191-17.25825431 10.8520714.18578571-.1836 10.3479c-.0138428.7591714-.6404142 1.3638857-1.3995857 1.3507714-.7613571-.0138428-1.3660714-.6404143-1.3522285-1.3995857l.0881571-4.96521427.0196714-1.11107143-.8553428.7089-.2105572.17485714c-2.0793428 1.72452857-5.6559 4.97249996-8.5905857 8.02521426-.2433428.2528143-.5748428.3948857-.9260143.3948857h-.1712143c-.6564428 0-1.2662571-.4546285-1.3566-1.1037857-.0568285-.4050857.0706715-.7992428.3424286-1.0833857 2.3940857-2.50555713 5.6187429-5.5560857 8.0230286-7.5909857l.255-.21565714 1.0353-.8772-1.3566-.02185715-4.2592286-.06921428c-.7599-.01238572-1.3660714-.63968572-1.3522286-1.39958572.0138429-.75917142.6396858-1.36388571 1.3981286-1.35077142zm-14.0602628 10.64319001c.5675571 0 1.0280142.4597286 1.0280142 1.0272857s-.4604571 1.0272857-1.0280142 1.0272857h-6.88427147c-.56828572 0-1.02801429-.4597286-1.02801429-1.0272857s.45972857-1.0272857 1.02801429-1.0272857z" fill="#6f99a3" transform="translate(28.3 26.9)"/></g><g transform="translate(590.334348 687.059377)"><use fill="#000" filter="url(#c)" xlink:href="#b"/><use fill="#c42c76" fill-rule="evenodd" xlink:href="#b"/><text fill="#fff" font-family="LeagueGothic-Regular, League Gothic" font-size="24"><tspan x="24.06727" y="27">5. DEEL</tspan></text></g><g transform="translate(344 336)"><path d="m47.945271 95.8896449c-26.4789532 0-47.945271-21.4654206-47.945271-47.9452711 0-26.4789532 21.4663178-47.9443738 47.945271-47.9443738 26.4789533 0 47.9452711 21.4654206 47.9452711 47.9443738 0 26.4798505-21.4663178 47.9452711-47.9452711 47.9452711z" fill="#fff"/><path d="m41.3663782.92699455c.4177007 0 .7619219.31209037.8124074.71601492l.0063744.10276689v7.89850909c-.66912-.29376-1.3625716-.541824-2.0770316-.73991912l-.539732-.13913542v-5.22147273h-36.95181822v47.32985452h36.95181822v-12.1370727c.7247563-.1735855 1.4293352-.3970211 2.1104133-.6674583l.5063503-.2115962v15.2452909c0 .187425-.1327594.3436125-.3094465.3797308l-.0781535.0078692h-41.17925454c-.31105786 0-.56770549-.229136-.61179797-.527173l-.00669294-.0913179v-51.31805459c0-.31527273.23143501-.5753689.5333734-.62005355l.09253569-.00678281zm-12.8317855 41.04887995c.7223455 0 1.3083818.5860364 1.3083818 1.3083819 0 .6771988-.515071 1.2345948-1.1746492 1.301624l-.1337326.0067578h-17.9214c-.72234543 0-1.30838179-.5860364-1.30838179-1.3083818 0-.6771989.51507102-1.2345949 1.17464919-1.301624l.1337326-.0067579zm7.5491128-31.04064c3.2899636 0 6.5799272 1.2546 9.0900545 3.7656546 4.3918334 4.3918334 4.93828 11.1693798 1.645483 16.1587344l-.186883.2753201 3.6293455 3.6302728-3.2037273 3.2037272-3.6302727-3.6302727c-2.199491 1.5355636-4.7708182 2.3070546-7.344 2.3070546-3.290891 0-6.5799273-1.2546-9.0900546-3.7656546-5.0211818-5.0202545-5.0211818-13.1589273 0-18.1791818 2.5101273-2.5110546 5.7991636-3.7656546 9.0900546-3.7656546zm-11.7297219 23.0024837c.8753455.9894 1.8730909 1.8675273 2.9746909 2.6065636-.0352363.0027818-.0676909.0102-.1029272.0102h-16.6120909c-.72327276 0-1.30838185-.5860363-1.30838185-1.3083818s.58510909-1.3083818 1.30838185-1.3083818zm11.7297219-20.1863564c-2.6816728 0-5.2029273 1.0441091-7.0992 2.9403818-1.8953455 1.8962728-2.9403819 4.4175273-2.9403819 7.0992 0 2.6807455 1.0450364 5.202 2.9403819 7.0982728.304609.3046091.6264306.5862681.9623352.8453684l.3404829.2515952 1.4270728.8466c1.3454727.6509455 2.8309636.9968182 4.3693091.9968182 1.41015 0 2.7751083-.2906292 4.0291652-.8404611l.3392166-.1563571 1.428-.8466c.459-.3254727.8957454-.6908182 1.3018909-1.0969636 1.8962727-1.8962728 2.9403818-4.4175273 2.9403818-7.0982728 0-2.6816727-1.0441091-5.2029272-2.9403818-7.0992-1.8962727-1.8962727-4.4175273-2.9403818-7.0982727-2.9403818zm3.4846909 3.4334127c1.0450363.5526546 1.9407818 1.3464 2.6167636 2.3061273v8.5197818c-.6759818.9597273-1.5717273 1.7534728-2.6167636 2.3061273zm-18.9256364 8.7156219c.1008873.7195636.2516247 1.423104.4484143 2.1072977l.1561675.5094659h-10.6339636c-.72234547 0-1.30838184-.5860364-1.30838184-1.3083818 0-.6771989.51507103-1.2345948 1.17464924-1.301624l.1337326-.0067578zm10.5086891-.0002782c.7223454 0 1.3083818.5860363 1.3083818 1.3083818s-.5860364 1.3083818-1.3083818 1.3083818h-.7835455c-.6370363-.7585091-1.1247818-1.6449818-1.4187272-2.6167636zm.3332618-7.9891037c.5600727.1483637.9754909.6537273.9754909 1.2601637 0 .6771988-.515071 1.2345948-1.1746492 1.301624l-.1337326.0067578h-1.7534727c.4960909-1.0051636 1.2110182-1.8823636 2.0863636-2.5685455zm-9.8230636-.0483109c-.2789237.6698619-.5103709 1.3640553-.6924428 2.0778328l-.1272663.5389309h-10.2287455c-.72234543 0-1.30838179-.5860364-1.30838179-1.3083818 0-.6771989.51507102-1.2345949 1.17464919-1.301624l.1337326-.0067579zm-2.2864691-8.03741451c.7223454 0 1.3083818.58603641 1.3083818 1.30838181 0 .6771989-.515071 1.2345948-1.1746492 1.301624l-.1337326.0067578h-8.7618c-.72234547 0-1.30838184-.5860363-1.30838184-1.3083818 0-.6771989.51507103-1.23459481 1.17464924-1.30162399l.1337326-.00675782z" fill="#6f99a3" transform="translate(24.9 21.8)"/></g><g transform="translate(323 421)"><use fill="#000" filter="url(#e)" xlink:href="#d"/><use fill="#c42c76" fill-rule="evenodd" xlink:href="#d"/><text fill="#fff" font-family="LeagueGothic-Regular, League Gothic" font-size="24"><tspan x="19.32" y="27">1. BEREID VOOR</tspan></text></g><g transform="translate(188 174)"><path d="m47.945271 95.8896449c-26.4789532 0-47.945271-21.4654206-47.945271-47.9452711 0-26.4789532 21.4663178-47.9443738 47.945271-47.9443738 26.4789533 0 47.9452711 21.4654206 47.9452711 47.9443738 0 26.4798505-21.4663178 47.9452711-47.9452711 47.9452711z" fill="#fff"/><g fill="#6f99a3" transform="translate(24.9 20.1)"><path d="m2.738632 53.110278h38.664392v-49.489856h-38.664392zm40.546428-52.22672h-42.630016c-.361556 0-.655044.293488-.655044.655044v53.662336c0 .357136.289068.646204.647088.646204h43.087928c.224536 0 .405756-.18122.405756-.405756v-53.701232c0-.47294-.382772-.856596-.855712-.856596z"/><path d="m26.805974 42.4487076c.80444 0 1.455064.651508 1.455064 1.455064 0 .80444-.650624 1.455064-1.455064 1.455064h-9.471176c-.803556 0-1.455064-.650624-1.455064-1.455064 0-.803556.651508-1.455064 1.455064-1.455064zm-10.53507-17.2566524c.2291033.6622633.4723261 1.2606822.7808257 1.8239048l.1933423.3339392-4.168944 4.177784-.933504 3.37688 3.37688-.935272 4.081428-4.0885c.621504.496704.6886024.5470645 1.6391753 1.2396253l.1889367.1376467-4.792164 4.80012-7.67754 2.030548 2.066792-7.64218zm3.6452624-5.2127712c3.353012.987428 4.298892 1.070524 6.188884 3.452904 2.394756 3.01002 9.884888 13.172484 9.884888 13.172484.5967.84422-.43316 1.898832-1.287104 1.31716 0 0-10.334844-7.259408-13.404976-9.580792-2.3490366-1.7778345-2.5261457-2.7161004-3.4993465-5.7932648l-.0967655-.3045672zm-1.9592976 8.3413356c.171054.202878.3595118.4072478.5676109.6134822l.2147291.2068698-2.97024 2.977312-.801788-.801788zm12.5995636-17.4407012 5.610748 5.611632-7.075536 7.08968c-.367965-.479349-.6991335-.9154372-1.0513108-1.354509l-.3613212-.441779 5.324332-5.33494-2.442492-2.443376-5.446324 5.457816c-.5598667-.3366567-1.143675-.59228-1.7851889-.818539l-.3921031-.132645zm.0421668 4.7686496.80002.80002-4.473924 4.485416c-.280228-.293488-.55692-.547196-.829192-.772616zm-21.639878-4.7686496c3.123186 1.3388811 9.6324818 1.0912992 9.4322208 6.9355892l-.0149688.2875748-2.429232 2.477852c-6.051864.105196-5.939596-6.354192-6.98802-9.701016z"/></g></g><g transform="translate(173 259)"><path d="m9 0h107v38h-107z" fill="#c42c76"/><text fill="#fff" font-family="LeagueGothic-Regular, League Gothic" font-size="24"><tspan x="22.392" y="27">2. ONTWERP</tspan></text></g><g transform="translate(271 530)"><path d="m47.945271 95.8896449c-26.4789532 0-47.945271-21.4654206-47.945271-47.9452711 0-26.4789532 21.4663178-47.9443738 47.945271-47.9443738 26.4789533 0 47.9452711 21.4654206 47.9452711 47.9443738 0 26.4798505-21.4663178 47.9452711-47.9452711 47.9452711z" fill="#fff"/><path d="m38.9814369 9.2671839c.21259 0 .3848044.17967651.3848044.40147814v1.86296166c0 .2218017-.1722144.4014782-.3848044.4014782h-22.4406081c-.2134141 0-.3856285.1796765-.3856285.4014781v46.2164092c0 .2218016.1722144.4014781.3856285.4014781h34.3893214c.21259 0 .3848044-.1796765.3848044-.4014781v-34.3775325c0-.2218016.1722144-.4014782.3856284-.4014782h1.7847675c.21259 0 .3848044.1796766.3848044.4014782v36.9213736c0 .2897176-.2241259.523555-.5018113.523555h-39.2665322c-.2768615 0-.5018114-.2338374-.5018114-.523555v-51.3040914c0-.28885793.2249499-.523555.5018114-.523555zm-14.3075125 34.2296317c3.8504157 0 6.5916727 4.2995328 4.0464081 8.1517103-.1599579.2416949-.3594658.4570231-.5870983.6363168-3.9347891 3.0831482-8.492711.1054669-8.492711-3.7537418 0-2.739502 2.2209543-5.0342853 5.0334012-5.0342853zm22.1945669 8.054031c.8671353 0 1.3919804 1.1712926.493876 1.9282504-.0676431.0573694-.1581055.0852573-.246123.0852573h-10.5555796c-.0749779 0-.1532156-.0215135-.2151539-.0621502-1.1442274-.756161-.4433473-1.9513575.4327527-1.9513575zm-20.2724351-5.1844532c-2.9328549-2.048694-6.13465 1.1531045-4.0859582 4.0859624.064159.0931624.1494113.1775359.2425736.2425738 2.9328549 2.048694 6.13465-1.1531045 4.0859581-4.0859624-.0650378-.0931624-.1494112-.1775359-.2425735-.2425738zm20.2803647-.8560701c.8601666 0 1.3807937 1.1712926.4890985 1.9290472-.0662911.0565727-.1560265.0844606-.244145.0844606h-12.3648937c-.8690592 0-1.5643066-1.1951966-.4292749-1.9513576.0614405-.0414334.1382411-.0621502.2134248-.0621502zm-22.202459-14.0945542c2.8132252 0 5.0341001 2.2947883 5.0341001 5.0334172 0 3.8600958-4.557759 6.8377835-8.4932863 3.7546287-.2276242-.1792941-.4271251-.3946227-.5870773-.6363182-2.5442946-3.8521857.1968643-8.1517277 4.0462635-8.1517277zm22.202459 6.0405232c.8601666 0 1.3807937 1.1712926.4890985 1.9282504-.0662911.0573695-.1560265.0852574-.244145.0852574h-12.3648937c-.8690592 0-1.5643066-1.1951965-.4292749-1.9513575.0614405-.0414335.1382411-.0621503.2134248-.0621503zm-20.0378312.9150319c2.0486187-2.9328642-1.153062-6.1346695-4.085812-4.0859712-.093159.0641592-.1775294.1494118-.2425649.2425744-2.0494974 2.9328642 1.1530621 6.1355484 4.0858121 4.0859711.0922801-.065038.1775293-.1494117.2425648-.2425743zm20.0378312-8.9690628c.8601666 0 1.3807937 1.1712926.4890985 1.9282504-.0670995.0573694-.1560265.0852573-.244145.0852573h-12.3648937c-.8690592 0-1.5643066-1.1951965-.4292749-1.9513575.0614405-.0414335.1382411-.0621502.2134248-.0621502zm-19.2843403-11.4767457c.2960248-.4923741.9627395-.7740889 1.4801241-.4923741.518263.2817149.8142879.9153643.518263 1.4077384l-4.883092 9.8575122c-.2960248.4221543-.8142878.7038692-1.4063375.7038692-.5911712 0-1.1094343-.2114952-1.4792457-.7038692l-1.9975088-3.2393029c-.3698114-.5625938-.1484516-1.1962432.3698115-1.4779581.5920496-.3519346 1.2578859-.1412754 1.5539107.3519346l1.0857172 1.7571651c.1668982.2708475.5841439.2524566.7255682-.0317661zm19.2161531 5.4362224c.8690548 0 1.5642985 1.1951965.4292727 1.9513575-.0614402.0414335-.1390488.0621503-.2134237.0621503h-12.4828594c-.0751833 0-.1519835-.0207168-.2142321-.0621503-1.1350259-.756161-.4389737-1.9513575.4292726-1.9513575zm9.772908-5.1046448c.0902052 0 .1820211.0372499.2488696.1127564.8128009.9219628.4194416 2.3228422-.4695208 2.4253464l-.1047316.0059642h-4.8163105c-.8658084 0-1.558455-1.5101308-.4284745-2.4655402.041344-.0349008.0876995-.058168.1362026-.0698016l.0740076-.0087252zm-2.7158234-7.7287844c.0168325.1039235-.0112217.2107337-.0693499.2968748l-.0490037.0603622-4.0021034 4.1181489c-.2218033.1524572-.4427299.3040123-.7381754.3040123-.5593302 0-1.1186603-.2724383-1.176522-1.3342261-.0046026-.0872795.0208762-.174559.0675601-.247757l.0534235-.0679828 3.9354748-4.04868614c.6469994-.66575989 1.7665363-.35904124 1.978696.91925384zm-9.4705012-4.83900234c.0349008.04134403.058168.08769945.0698016.13620262l.0087252.07400759v5.35995763c0 .0902051-.0372499.1820211-.1127564.2488695-.9219629.8128009-2.3228422.4194416-2.4253464-.4695208l-.0059642-.1047316v-4.81631049c0-.86580833 1.5101308-1.55845499 2.4655402-.42847445z" fill="#6f99a3" transform="translate(13 15)"/></g><g transform="translate(250 615)"><use fill="#000" filter="url(#g)" xlink:href="#f"/><use fill="#c42c76" fill-rule="evenodd" xlink:href="#f"/><text fill="#fff" font-family="LeagueGothic-Regular, League Gothic" font-size="24"><tspan x="31.488" y="27">4. PAS AAN</tspan></text></g><g transform="translate(539.350365 303)"><path d="m47.945271 95.8896449c-26.4789532 0-47.945271-21.4654206-47.945271-47.9452711 0-26.4789532 21.4663178-47.9443738 47.945271-47.9443738 26.4789533 0 47.9452711 21.4654206 47.9452711 47.9443738 0 26.4798505-21.4663178 47.9452711-47.9452711 47.9452711z" fill="#fff"/><path d="m30.5159302 27.7520125c.5212264 0 1.215083.1200905 1.5586755.6905207.5137207.8531434.4786943 2.8696642-1.1608755 5.967834-.0458679.086732-.0884.1726302-.1292642.2576943-.2576943-.2952226-.5253962-.5720981-.7964339-.8414679-.8931736-.8873359-1.3410113-1.3318378-1.3410113-4.0405472 0-1.3877132.5937811-2.0340339 1.8689094-2.0340339m-4.9077845-25.90853892c-.5846076.79393208-1.0783132 1.65624906-1.4552642 2.58194717h-21.56959999v46.68854345h36.47584149v-30.8399246c.9165245-.308566 1.7805095-.7255471 2.5836151-1.2350981v34.2741811c0 .2109925-.1717962.3827887-.3836226.3827887h-40.64898871c-.33692075 0-.60962641-.2727056-.60962641-.6096264v-50.62484528c0-.34109056.27604151-.61796604.61796604-.61796604zm-11.1172174 16.56090602c5.3223472 0 9.0293094 5.0946755 3.9863396 14.6201925-1.6554151 3.1298604 1.7654981 3.8737547 5.4382679 4.7227283 3.184068.7355547 3.3958944 2.2917283 3.3958944 4.9870943-.0110257.1680931-.1824072 2.7810774-.367355 5.6123398l-.0179356.2745998h-2.9238717l.0099033-.1547.0092779-.1547c.1634566-2.5986264.3235773-5.1522188.3552679-5.6667735-.0025019-.9015133-.045034-1.4686076-.1250944-1.6879397-.0727821-.0485214-.3006399-.1756145-.8289371-.310477l-.1676478-.0406211-.1417735-.0325245c-3.1256906-.7222113-6.3572944-1.4686076-7.5782151-4.1406227-.4611812-1.0082603-.774751-2.6561698.3494301-4.7802716 2.0190227-3.8145434 2.587785-7.1478906 1.5211472-8.9192265-.6938566-1.1533698-1.9681509-1.3952188-2.9146981-1.3952188-.9557208 0-2.2425245.2476868-2.9455547 1.4277434-1.0699736 1.7963547-.4945396 5.1088528 1.5378264 8.8583471 1.148366 2.1182642.8439698 3.7720114.3869585 4.7861095-1.2117472 2.6870264-4.41749812 3.4259169-7.51733586 4.1414566 0 0-.39699361.0882208-.74925024.2276949l-.10389315.0433428v-3.0856604l.39791219-.0918065c3.4416535-.7949493 6.64440496-1.5998087 5.00532936-4.6225821-5.05464533-9.327868-1.43941891-14.6185246 3.9880075-14.6185246zm16.0250019 6.4129196c3.9938453 0 6.7717736 3.8203812 2.9914226 10.9649359-1.0799811 2.0423736.7205434 2.7295585 3.0206114 3.293317v3.0231132c-1.1391925-.2643661-2.1966567-.5253962-3.2124227-.9799057.0558755.5379057.0942377 1.1166755.1142528 1.7413132.0066717.2034868.0075057.2401812-.220166 4.6551774-.0175132.331917-.0350264.6696717-.0525396 1.0082604.0008339-.000834.0008339.0375283-.000834.0975736h-2.9288755c.1459434-2.9455548.2735397-5.5558567.2702038-5.6667736-.2910528-9.0643359-4.7844415-5.1330378-4.7844415-13.1682642 0-3.2215962 2.099917-4.9687472 4.8027887-4.9687472zm4.7319019-24.81704901c4.9220453 0 8.9258981 4.00385283 8.9258981 8.92673207 0 4.92204524-4.0038528 8.92589814-8.9258981 8.92589814s-8.9258981-4.0038529-8.9258981-8.92589814c0-4.92287924 4.0038528-8.92673207 8.9258981-8.92673207zm3.845843 5.4362612-.0354694.0245237-4.553434 4.66685281c-.0312736.0312736-.0770894.0400302-.1159859.0255662l-.0357952-.0222303-2.0498793-1.94396606c-.031899-.03002265-.0774021-.0370592-.1157513-.0214615l-.0351958.02312942-1.3960529 1.39772076c-.031899.03189905-.0398738.07880943-.0235724.11786232l.0244064.03558673 3.5960453 3.48763023c.031899.0306481.0783403.037841.1171586.0219306l.0354565-.0235986 6.1021018-6.21885657c.0312736-.03189905.0386229-.07787122.0227516-.11645501l-.0235855-.03532612-1.3952189-1.39521887c-.0325245-.03252453-.0791222-.04018655-.1179796-.02368974z" fill="#6f99a3" transform="translate(26.6 21.8)"/></g><g transform="translate(539 388)"><use fill="#000" filter="url(#i)" xlink:href="#h"/><use fill="#c42c76" fill-rule="evenodd" xlink:href="#h"/><text fill="#fff" font-family="LeagueGothic-Regular, League Gothic" font-size="24"><tspan x="24.16327" y="27">3. TEST</tspan></text></g></g></svg>