<svg height="40" viewBox="0 0 40 40" width="40" xmlns="http://www.w3.org/2000/svg"><path d="m12.8677286 2.67527143c.2989285 0 .54648.21800571.593001.50342657l.0078561.09743057v.13414286c0 .29854286-.2176586.54640286-.5033224.59298943l-.0975347.00786771h-10.93114289c-.29854285 0-.54640285.21800572-.59298942.50342657l-.00786772.09743057v17.64128569c0 .2985429.21800572.5464029.50342657.5929895l.09743057.0078677h17.17714289c.2985428 0 .5464028-.2180057.5929894-.5034266l.0078677-.0974306v-11.7098571c0-.2989286.2180057-.54648001.5034266-.59300101l.0974306-.00785615h.1341428c.2985429 0 .5464029.21765856.5929894.50332246l.0078678.0975347v12.9844286c0 .3323376-.2451004.6076505-.5643233.6549608l-.0978196.007182h-19.72628571c-.33233767 0-.60765054-.2451003-.65496083-.5643233l-.00718203-.0978195v-20.19042861c0-.33233767.24510035-.60765054.56432328-.65496083l.09781958-.00718203zm.6768857 15.68798567c.3338571 0 .6047143.2704286.6047143.6042858 0 .3338571-.2708572.6042857-.6047143.6042857h-8.28300001c-.33385715 0-.60471429-.2704286-.60471429-.6042857 0-.3338572.27085714-.6042858.60471429-.6042858zm1.2095571-3.8914714c.3338572 0 .6047143.2708572.6047143.6042857 0 .3338572-.2708571.6042857-.6047143.6042857h-9.49242854c-.33385715 0-.60471429-.2704285-.60471429-.6042857 0-.3334285.27085714-.6042857.60471429-.6042857zm-1.7142857-3.8912571c.3338572 0 .6047143.2704285.6047143.6042857 0 .3338571-.2708571.6042857-.6047143.6042857h-7.77814284c-.33385715 0-.60471429-.2704286-.60471429-.6042857 0-.3338572.27085714-.6042857.60471429-.6042857zm4.5423-10.15191431 6.3835714.10928571-.108 6.087c-.0081428.44657143-.3767142.80228571-.8232857.79457143-.4478571-.00814286-.8035714-.37671429-.7954285-.82328572l.0518571-2.92071428.0115714-.65357143-.5031428.417-.1238572.10285714c-1.2231428 1.01442857-3.327 2.925-5.0532857 4.72071429-.1431428.14871428-.3381428.23228571-.5447143.23228571h-.1007143c-.3861428 0-.7448571-.26742857-.798-.64928571-.0334285-.23828572.0415715-.47014286.2014286-.63728572 1.4082857-1.47385714 3.3051429-3.26828571 4.7194286-4.46528571l.15-.12685714.609-.516-.798-.01285715-2.5054286-.04071428c-.447-.00728572-.8035714-.37628572-.7954286-.82328572.0081429-.44657142.3762858-.80228571.8224286-.79457142zm-8.27074284 6.2607c.33385714 0 .60471428.27042857.60471428.60428571s-.27085714.60428571-.60471428.60428571h-4.04957143c-.33428572 0-.60471429-.27042857-.60471429-.60428571s.27042857-.60428571.60471429-.60428571z" fill="#6f99a3" fill-rule="evenodd" transform="translate(9 7)"/></svg>