<svg height="40" viewBox="0 0 40 40" width="40" xmlns="http://www.w3.org/2000/svg"><path d="m22.930257 5.45128465c.1250529 0 .2263555.10569206.2263555.23616361v1.09585983c0 .13047154-.1013026.23616361-.2263555.23616361h-13.20035773c-.12553766 0-.22684025.10569206-.22684025.2361636v27.186123c0 .1304716.10130259.2361636.22684025.2361636h20.22901263c.1250529 0 .2263555-.105692.2263555-.2361636v-20.2220779c0-.1304715.1013026-.2361636.2268403-.2361636h1.0498632c.1250529 0 .2263555.1056921.2263555.2361636v21.7184551c0 .1704221-.1318388.3079735-.2951831.3079735h-23.09796015c-.16285967 0-.29518315-.1375514-.29518315-.3079735v-30.17887732c0-.16991643.13232348-.30797353.29518315-.30797353zm4.6394438 24.87274275c.5100796 0 .818812.6889956.2905152 1.1342649-.03979.0337468-.0930032.0501514-.1447782.0501514h-6.2091644c-.0441047 0-.0901269-.012655-.1265611-.0365589-.673075-.4448006-.2607926-1.1478574.2545604-1.1478574zm-13.0556276-4.7376653c2.2649504 0 3.8774545 2.529137 2.3802401 4.7951237-.0940929.1421735-.2114506.2688371-.345352.374304-2.3145818 1.8136166-4.9957123.0620394-4.9957123-2.2080834 0-1.6114717 1.3064436-2.9613443 2.9608242-2.9613443zm1.1306657 1.687987c-1.7252087-1.2051142-3.6086176.6782967-2.4035048 2.4035072.0377406.0548015.087889.1044329.1426904.1426905 1.7252087 1.2051141 3.6086176-.6782967 2.4035048-2.4035073-.0382576-.0548014-.087889-.1044329-.1426904-.1426904zm11.9296264-.5035707c.5059803 0 .8122315.6889957.2877049 1.1347337-.0389947.033278-.0917802.0496826-.1436147.0496826h-7.2734669c-.5112113 0-.9201803-.7030567-.2525146-1.1478573.0361415-.0243727.0813183-.036559.125544-.036559zm-13.0602701-8.2909142c1.6548384 0 2.9612354 1.3498754 2.9612354 2.9608336 0 2.2706446-2.6810347 4.0222256-4.9960507 2.2086051-.1338967-.1054671-.2512501-.232131-.3453396-.3743048-1.496644-2.2659916.1158025-4.7951339 2.3801549-4.7951339zm13.0602701 3.5532489c.5059803 0 .8122315.6889957.2877049 1.134265-.0389947.0337467-.0917802.0501514-.1436147.0501514h-7.2734669c-.5112113 0-.9201803-.7030568-.2525146-1.1478574.0361415-.0243726.0813183-.036559.125544-.036559zm-11.7869596.5382541c1.2050698-1.7252143-.6782718-3.6086292-2.4034188-2.4035125-.0547994.0377407-.1044291.0878893-.1426852.1426908-1.2055868 1.7252143.6782717 3.6091461 2.4034188 2.4035124.0542824-.0382576.1044291-.0878892.1426852-.1426907zm11.7869596-5.2759193c.5059803 0 .8122315.6889956.2877049 1.1342649-.0394702.0337467-.0917802.0501514-.1436147.0501514h-7.2734669c-.5112113 0-.9201803-.7030568-.2525146-1.1478574.0361415-.0243726.0813183-.0365589.125544-.0365589zm-11.3437297-6.7510269c.1741323-.2896318.5663174-.4553464.8706613-.2896318.3048606.1657146.4789928.5384496.3048606.8280814l-2.8724071 5.7985366c-.1741322.248326-.4789928.4140407-.8272573.4140407-.3477478 0-.6526084-.1244089-.8701446-.4140407l-1.1750051-1.9054723c-.2175362-.3309375-.0873245-.7036725.2175361-.8693871.3482645-.2070204.7399329-.0831032.9140651.2070203l.6386572 1.0336265c.0981755.1593221.3436141.1485039.4268049-.0186859zm11.3036195 3.1977779c.5112087 0 .9201756.7030568.2525133 1.1478574-.0361412.0243726-.0817933.0365589-.1255433.0365589h-7.3428584c-.0442255 0-.0894021-.0121863-.1260189-.0365589-.6676623-.4448006-.2582198-1.1478574.2525133-1.1478574zm5.7487695-3.0027323c.0530618 0 .1070712.0219117.1463938.0663274.4703754.5335483.2540386 1.3397618-.2510149 1.4231484l-.0867806.0070343h-2.8331239c-.509299 0-.9167382-.8883123-.2520438-1.4503178.0243201-.0205299.051588-.0342165.0801192-.0410598l.0435339-.0051325zm-1.5975432-4.54634372c.0092826.05731075-.0046414.11611397-.0345924.16499228l-.0350274.04514714-2.3541785 2.42244054c-.1304725.08968071-.2604293.17883077-.4342208.17883077-.3290177 0-.6580355-.16025784-.6920718-.7848389-.0024066-.04563633.0091681-.09127267.0310567-.13109146l.0401102-.05463782 2.3149851-2.3815801c.3805879-.39162346 1.039139-.21120073 1.1639389.54073755zm-5.5708831-2.84647196c.0205299.02432001.0342165.05158791.0410598.08011918l.0051324.04353388v3.15291625c0 .05306185-.0219117.10707124-.0663273.14639386-.5335484.47037535-1.3397619.2540386-1.4231485-.2510149l-.0070342-.08678064v-2.83312384c0-.50929902.8883122-.91673823 1.4503178-.25204379z" fill="#ffff" fill-rule="evenodd"/></svg>
