<svg height="40" viewBox="0 0 40 40" width="40" xmlns="http://www.w3.org/2000/svg"><path d="m17.9505472 16.3247132c.3066037 0 .7147547.0706415.9168679.4061887.3021887.501849.2815849 1.6880377-.6828679 3.5104906-.0269812.0510188-.052.1015471-.0760378.1515849-.1515849-.1736604-.3090566-.3365283-.4684905-.4949812-.5253963-.5219622-.7888302-.7834339-.7888302-2.3767924 0-.8163019.349283-1.1964906 1.0993585-1.1964906m-2.8869321-15.24031697c-.3438868.46701886-.6343019.97426415-.8560377 1.51879245h-12.68800004v27.46384902h21.45637734v-18.141132c.5391321-.1815095 1.0473585-.4267925 1.5197736-.7265283v20.161283c0 .1241132-.1010566.2251698-.2256604.2251698h-23.91116979c-.19818868 0-.35860377-.1604151-.35860377-.3586038v-29.77932074c0-.20064151.16237736-.36350943.36350943-.36350943zm2.8869321 13.51401507c2.3493207 0 3.9833962 2.247283 1.7596603 6.4499623-.635283 1.2013962.4238491 1.6056226 1.7768302 1.9372453v1.7783019c-.6701132-.1555095-1.2921509-.3090566-1.8896603-.5764151.0328679.3164151.0554339.6568679.0672075 1.0243018.0039245.1196982.0044151.1412831-.1295094 2.7383397-.0103019.1952453-.0206038.3939245-.0309057.5930943.0004906-.0004906.0004906.0220755-.0004906.0573962h-1.7228679c.0858491-1.7326792.1609057-3.2681509.1589434-3.3333962-.1712075-5.3319623-2.8143773-3.019434-2.8143773-7.7460377 0-1.8950566 1.2352452-2.9227925 2.8251698-2.9227925zm-9.42647173-3.7723056c3.13079243 0 5.31135853 2.9968679 2.34490563 8.6001132-.97377355 1.8410943 1.0385283 2.2786792 3.1989812 2.7780754 1.8729811.4326793 1.9975849 1.3480755 1.9975849 2.9335849-.0084553.1289081-.1059782 1.6158681-.2121216 3.2406105l-.0145199.2222952h-1.7199246l.0058255-.091.0054576-.091c.0961509-1.5286038.1903396-3.030717.2089811-3.3333962-.0014717-.5303019-.0264906-.8638868-.0735849-.9929057-.0412076-.0274717-.1669228-.0977606-.4533904-.1737303l-.132836-.032798-.0833963-.0191321c-1.8386415-.4248301-3.73958487-.8638868-4.45777355-2.4356603-.27128302-.5930944-.45573585-1.5624529.20554717-2.8119246 1.18766038-2.243849 1.52222638-4.2046415.89479248-5.2466037-.40815097-.6784529-1.15773588-.820717-1.71452833-.820717-.56218868 0-1.31913207.1456981-1.73267924.839849-.62939623 1.0566793-.29090566 3.0052076.90460377 5.2107925.67550943 1.2460377.49645283 2.2188302.22762264 2.8153585-.71279245 1.5806038-2.5985283 2.0152453-4.42196226 2.4361509 0 0-.21633963.0480755-.41732702.1248366l-.08452204.0345974v-1.8150944c2.10943396-.487132 4.17962264-.9266792 3.17837736-2.7731698-2.97332076-5.4869811-.84671698-8.599132 2.34588679-8.599132zm12.20994343-10.82595853c2.8953207 0 5.2505283 2.35520755 5.2505283 5.25101887 0 2.89532075-2.3552076 5.25052826-5.2505283 5.25052826-2.8953208 0-5.2505283-2.35520751-5.2505283-5.25052826 0-2.89581132 2.3552075-5.25101887 5.2505283-5.25101887zm2.2700307 3.19509294-.0286345.01713347-2.6784906 2.74520755c-.0163522.0163522-.0394633.022239-.0604668.01736967l-.0288162-.0154074-1.2058113-1.14350944c-.0166793-.01569811-.0396814-.02071279-.0604305-.01518938l-.028362.01617051-.8212075.82218868c-.0166793.01667925-.022239.04033543-.0165339.06152062l.0170245.02874353 2.1153207 2.05154717c.0166793.01602516.0401174.02114885.0611572.01551643l.0286164-.01649756 3.5894717-3.65815094c.0163522-.01667925.0215849-.03989937.0159888-.06079385l-.0164794-.02848917-.820717-.82071698c-.0170062-.01700629-.0405534-.02245702-.0616296-.01664291z" fill="#ffff" fill-rule="evenodd" transform="translate(8 4)"/></svg>
