<svg height="40" viewBox="0 0 40 40" width="40" xmlns="http://www.w3.org/2000/svg"><g fill="#6f99a3" fill-rule="evenodd" transform="translate(7 3)"><path d="m1.61096 31.24134h22.74376v-29.11168h-22.74376zm23.85084-30.7216h-25.07648c-.21268 0-.38532.17264-.38532.38532v31.56608c0 .21008.17004.38012.38064.38012h25.34584c.13208 0 .23868-.1066.23868-.23868v-31.58896c0-.2782-.22516-.50388-.50336-.50388z"/><path d="m15.76822 24.969828c.4732 0 .85592.38324.85592.85592 0 .4732-.38272.85592-.85592.85592h-5.57128c-.47268 0-.85592-.38272-.85592-.85592 0-.47268.38324-.85592.85592-.85592zm-6.1971-10.150972c.129376.373984.2664064.7133568.4377152 1.0330278l.1353248.2362922-2.45232 2.45752-.54912 1.9864 1.9864-.55016 2.40084-2.405c.35856.28656.4034215.3205662.9325321.7061027l.1428279.1040573-2.81892 2.8236-4.5162 1.19444 1.21576-4.4954zm2.144272-3.066336c1.97236.58084 2.52876.62972 3.64052 2.03112 1.40868 1.7706 5.81464 7.74852 5.81464 7.74852.351.4966-.2548 1.11696-.75712.7748 0 0-6.07932-4.27024-7.88528-5.63576-1.3643443-1.0325843-1.4831344-1.5836939-2.036981-3.3398557l-.078379-.2471043zm-1.152528 4.906668c.08944.10608.1869689.2128533.2935111.3204741l.1666889.1620859-1.7472 1.75136-.47164-.47164zm7.411508-10.259236 3.30044 3.30096-4.16208 4.1704c-.1924-.25064-.3676978-.4811733-.5497748-.7107052l-.2811852-.3459348 3.13196-3.1382-1.43676-1.43728-3.20372 3.21048c-.31616-.190112-.6452992-.3362944-1.0049894-.4654374l-.2757706-.0940826zm.024804 2.805088.4706.4706-2.63172 2.63848c-.16484-.17264-.3276-.32188-.48776-.45448zm-12.72934-2.805088c1.82621739.78288261 5.6205893.64364376 5.5500523 4.0186637l-.0104923.2302563-1.42896 1.45756c-3.55992.06188-3.49388-3.73776-4.1106-5.70648z"/></g></svg>