<svg height="40" viewBox="0 0 40 40" width="40" xmlns="http://www.w3.org/2000/svg"><path d="m24.3331636.54529091c.2366061 0 .4331313.17023569.4738826.39501384l.0077538.08662252v4.64618182c-.369-.162-.7505795-.300375-1.1431278-.41305398l-.3961449-.10403693v-3.07145454h-21.73636366v27.84109086h21.73636366v-7.1394545c.3996818-.0957273.7889318-.2172273 1.1661392-.3631193l.3731335-.1539716v8.9678182c0 .105-.0708333.1933333-.1673611.2198611l-.0606389.0081389h-24.22309091c-.17611363 0-.3225767-.1248665-.3564407-.2905547l-.00737748-.0732635v-30.18709092c0-.1785.12611932-.32693182.2939478-.36125071l.07423402-.00747656zm-7.5481091 24.14639999c.4249091 0 .7696364.3447273.7696364.7696364 0 .3895-.2896667.711625-.6652326.7626076l-.1044038.0070287h-10.54199995c-.4249091 0-.76963637-.3447272-.76963637-.7696363 0-.3895.28966667-.711625.66523264-.7626077l.10440373-.0070287zm4.4406546-18.25919999c1.9352727 0 3.8705454.738 5.3470909 2.21509091 2.5638042 2.56380418 2.8998558 6.50972638 1.0116869 9.43806418l-.1536869.2290267 2.1349091 2.1354546-1.8845455 1.8845454-2.1354545-2.1354545c-1.2938182.9032727-2.8063636 1.3570909-4.32 1.3570909-1.9358182 0-3.8705455-.738-5.3470909-2.2150909-2.9536364-2.9530909-2.9536364-7.7405455 0-10.69363638 1.4765454-1.47709091 3.4112727-2.21509091 5.3470909-2.21509091zm-6.8998364 13.53087269c.5149091.582 1.1018182 1.0985455 1.7498182 1.5332728l-.0605454.006h-9.77181823c-.42545454 0-.76963636-.3447273-.76963636-.7696364s.34418182-.7696364.76963636-.7696364zm6.8998364-11.87432724c-1.5774546 0-3.0605455.61418182-4.176 1.72963637-1.1149091 1.11545457-1.7296364 2.59854547-1.7296364 4.17599997 0 1.5769091.6147273 3.06 1.7296364 4.1754546.1592727.1592727.3265454.3078788.5005252.4459798l.2658384.1992929.8394546.498c.7914545.3829091 1.6652727.5863636 2.5701818.5863636.8043636 0 1.5837306-.1607542 2.3028567-.4654066l.2667797-.120957.84-.498c.27-.1914545.526909-.4063636.7658181-.6452727 1.1154546-1.1154546 1.7296364-2.5985455 1.7296364-4.1754546 0-1.5774545-.6141818-3.0605454-1.7296364-4.17599997-1.1154545-1.11545455-2.5985454-1.72963637-4.1754545-1.72963637zm2.0498182 2.01965454c.6147272.3250909 1.1416363.792 1.5392727 1.3565455v5.0116363c-.3976364.5645455-.9245455 1.0314546-1.5392727 1.3565455zm-4.9511455 5.1266727c.4249091 0 .7696364.3447273.7696364.7696364s-.3447273.7696364-.7696364.7696364h-.4609091c-.3747272-.4461819-.6616363-.9676364-.8345454-1.5392728zm-6.1815818.0001637c.0556364.3968182.1370455.7853522.2423864 1.1639914l.11325.3752813h-6.25527276c-.42490909 0-.76963637-.3447273-.76963637-.7696364 0-.3895.28966667-.711625.66523264-.7626076l.10440373-.0070287zm6.3776182-4.6996364c.3294545.0872727.5738182.3845455.5738182.7412727 0 .3895-.2896667.711625-.6652327.7626077l-.1044037.0070287h-1.0314545c.2918181-.5912727.7123636-1.1072727 1.2272727-1.5109091zm-5.7782727-.0284182c-.1538182.3694091-.283091.7513978-.3868978 1.1436648l-.0952841.395608h-6.01690905c-.4249091 0-.76963637-.3447273-.76963637-.7696364 0-.3895.28966667-.711625.66523264-.7626076l.10440373-.0070288zm-1.3449819-4.72789088c.4249091 0 .7696364.34472727.7696364.76963636 0 .3895-.2896667.711625-.6652326.76260764l-.1044038.00702873h-5.15399996c-.42490909 0-.76963637-.34472728-.76963637-.76963637 0-.3895.28966667-.711625.66523264-.76260764l.10440373-.00702872z" fill="#6f99a3" fill-rule="evenodd" transform="translate(7 4)"/></svg>